<svg id="Layer_3" enable-background="new 0 0 64 64" height="512" viewBox="0 0 64 64" width="512" xmlns="http://www.w3.org/2000/svg"><path d="m10 29h-4c-.553 0-1 .447-1 1v4c0 .553.447 1 1 1h4c.553 0 1-.447 1-1v-4c0-.553-.447-1-1-1zm-1 4h-2v-2h2z"/><path d="m10 37h-4c-.553 0-1 .447-1 1v4c0 .553.447 1 1 1h4c.553 0 1-.447 1-1v-4c0-.553-.447-1-1-1zm-1 4h-2v-2h2z"/><path d="m10 45h-4c-.553 0-1 .447-1 1v4c0 .553.447 1 1 1h4c.553 0 1-.447 1-1v-4c0-.553-.447-1-1-1zm-1 4h-2v-2h2z"/><path d="m10 53h-4c-.553 0-1 .447-1 1v4c0 .553.447 1 1 1h4c.553 0 1-.447 1-1v-4c0-.553-.447-1-1-1zm-1 4h-2v-2h2z"/><path d="m5 25h14v2h-14z"/><path d="m13 31h6v2h-6z"/><path d="m13 39h6v2h-6z"/><path d="m13 47h6v2h-6z"/><path d="m13 55h6v2h-6z"/><path d="m62 1h-36c-.553 0-1 .447-1 1v29h-2v-9c0-.553-.447-1-1-1h-20c-.553 0-1 .447-1 1v34c0 3.859 3.141 7 7 7h19v-.071c.327.047.66.071 1 .071 3.859 0 7-3.141 7-7v-3h13c.553 0 1-.447 1-1v-1h13c.553 0 1-.447 1-1v-48c0-.553-.447-1-1-1zm-54 60c-2.757 0-5-2.243-5-5v-33h18v33c0 1.957.807 3.729 2.105 5zm25-5c0 2.757-2.243 5-5 5s-5-2.243-5-5v-23h12.726c-1.667 1.467-2.726 3.61-2.726 6zm14-5h-12v-2h10v-2h-10v-2h10v-2h-10v-2h10v-2h-10c0-3.309 2.691-6 6-6s6 2.691 6 6zm.918-16h9.082v10h-8v-6c0-1.458-.398-2.822-1.082-4zm13.082 14h-12v-2h9c.553 0 1-.447 1-1v-12c0-.553-.447-1-1-1h-11.726c-1.41-1.241-3.253-2-5.274-2h-14v-28h34z"/><path d="m33 21h2v-3.184c1.161-.414 2-1.514 2-2.816 0-1.654-1.346-3-3-3-.552 0-1-.448-1-1s.448-1 1-1h3v-2h-2v-3h-2v3.184c-1.161.414-2 1.514-2 2.816 0 1.654 1.346 3 3 3 .552 0 1 .448 1 1s-.448 1-1 1h-3v2h2z"/><path d="m43 21h2v-3.184c1.161-.414 2-1.514 2-2.816 0-1.654-1.346-3-3-3-.552 0-1-.448-1-1s.448-1 1-1h3v-2h-2v-3h-2v3.184c-1.161.414-2 1.514-2 2.816 0 1.654 1.346 3 3 3 .552 0 1 .448 1 1s-.448 1-1 1h-3v2h2z"/><path d="m53 21h2v-3.184c1.161-.414 2-1.514 2-2.816 0-1.654-1.346-3-3-3-.552 0-1-.448-1-1s.448-1 1-1h3v-2h-2v-3h-2v3.184c-1.161.414-2 1.514-2 2.816 0 1.654 1.346 3 3 3 .552 0 1 .448 1 1s-.448 1-1 1h-3v2h2z"/><path d="m29 23h30v2h-30z"/><path d="m29 27h30v2h-30z"/></svg>