<?xml version="1.0" ?>
<svg height="150.53" viewBox="0 0 176.05 150.53" width="176.05" xmlns="http://www.w3.org/2000/svg">
  <path d="M42.19,29.45s76.55,-56.68 121.26,18.88c0,0 33.72,59.26 -9.17,81.31 0,0 -30.61,24 -84.64,15.34 0,0 -64.87,-12.81 -60,-67.1C9.65,77.88 10,53.35 42.19,29.45Z" fill="#ece5f2"/>
  <path d="M76.11,1.93s80.17,5.53 83.16,87.84c0,0 1.36,67.48 -41.6,59.27 0,0 -36,0.87 -75.76,-41.19 0,0 -46.55,-53.18 -14.35,-91.36C27.56,16.49 40.11,-1.15 76.11,1.93Z" fill="#cab8da"/>
  <path d="M138.65,1.57m-1.57,0a1.57,1.57 0,1 1,3.14 0a1.57,1.57 0,1 1,-3.14 0" fill="#ece4f1"/>
  <path d="M171.08,33.57m-2.41,0a2.41,2.41 0,1 1,4.82 0a2.41,2.41 0,1 1,-4.82 0" fill="#f8f3f9"/>
  <path d="M27.35,136.21m-2.41,0a2.41,2.41 0,1 1,4.82 0a2.41,2.41 0,1 1,-4.82 0" fill="#f8f3f9"/>
  <path d="M24.94,6.13m-2.41,0a2.41,2.41 0,1 1,4.82 0a2.41,2.41 0,1 1,-4.82 0" fill="#e8dded"/>
  <path d="M56.79,8.12h62a3.75,3.75 0,0 1,3.75 3.75V128.22a9.72,9.72 0,0 1,-9.72 9.72h-50A9.72,9.72 0,0 1,53 128.22V11.87A3.75,3.75 0,0 1,56.79 8.12Z" fill="#333"/>
  <path d="M57.66,15.84L117.92,15.84A2.1,2.1 0,0 1,120.02 17.94L120.02,121.98A2.1,2.1 0,0 1,117.92 124.08L57.66,124.08A2.1,2.1 0,0 1,55.56 121.98L55.56,17.94A2.1,2.1 0,0 1,57.66 15.84z" fill="#e9f1df"/>
  <path d="M98.88,12.86H77.18a0.6,0.6 0,0 1,-0.6 -0.6h0a0.6,0.6 0,0 1,0.6 -0.6h21.7a0.6,0.6 0,0 1,0.6 0.6h0A0.6,0.6 0,0 1,98.88 12.86Z" fill="#d3d3d3"/>
  <path d="M92.72,131.21a4.93,4.93 0,1 1,-4.92 -4.92A4.92,4.92 0,0 1,92.72 131.21Z" fill="#fff"/>
  <path d="M60.12,23.28L130.38,23.28A2.34,2.34 0,0 1,132.72 25.62L132.72,29.04A2.34,2.34 0,0 1,130.38 31.38L60.12,31.38A2.34,2.34 0,0 1,57.78 29.04L57.78,25.62A2.34,2.34 0,0 1,60.12 23.28z" fill="#5a5b5c"/>
  <path d="M61.14,26.15h67.6v1.81h-67.6z" fill="#282827"/>
  <path d="M129.52,28H76.67a7.43,7.43 0,0 0,-6.18 -7.3,7.12 7.12,0 0,1 1.23,-0.1h50.4A7.42,7.42 0,0 1,129.52 28Z" fill="#fff"/>
  <path d="M76.72,28H64.36a7.44,7.44 0,0 1,6.18 -7.31A7.44,7.44 0,0 1,76.72 28Z" fill="#b5b5b5"/>
  <path d="M134.53,111.79l-2.81,-4.28 0.25,4.43h-0.29l-0.83,-2L129.4,107l-1,2.28 -0.22,2.67H126l-1.59,-5 -1.73,1.66v3.29H120.1l-1.65,-5 -1.93,2v3h-0.92l-1.49,-3.59 -1.27,3.59h-1.09l-1,-3.77 -0.67,2.26 -2.09,1.51h-3.08l-0.37,-3.8 -3.57,3.8h-1.7c-1.22,-1.66 -3.51,-4.8 -3.71,-5s-0.54,2.72 -0.81,5H92.91l-2.7,-4.72 -0.53,4.72H87.93l-2.38,-3.5 -1.68,3.5H81.64l-1.29,-4.51 -2.67,4.51h-1V20.57h50.41a7.42,7.42 0,0 1,7.4 7.41Z" fill="#fff"/>
  <path d="M79.69,76.44h51.87v1.52h-51.87z" fill="#bee7fa"/>
  <path d="M79.69,79.32h51.87v1.52h-51.87z" fill="#bee7fa"/>
  <path d="M79.69,82.2h51.87v1.52h-51.87z" fill="#bee7fa"/>
  <path d="M79.69,44.56h51.96v27.81h-51.96z" fill="#e4f5fd"/>
  <path d="M82,51.55h22.94v1.52h-22.94z" fill="#7fc5ed"/>
  <path d="M125.73,51.55h4.7v1.52h-4.7z" fill="#7fc5ed"/>
  <path d="M124.73,54.44h5.7v1.52h-5.7z" fill="#7fc5ed"/>
  <path d="M124.03,57.32h6.41v1.52h-6.41z" fill="#7fc5ed"/>
  <path d="M118.56,70h11.88v1.52h-11.88z" fill="#7fc5ed"/>
  <path d="M125.91,60.2h4.52v1.52h-4.52z" fill="#7fc5ed"/>
  <path d="M82,54.44h21.9v1.52h-21.9z" fill="#7fc5ed"/>
  <path d="M82,57.32h24.44v1.52h-24.44z" fill="#7fc5ed"/>
  <path d="M82,60.2h22.94v1.52h-22.94z" fill="#7fc5ed"/>
  <path d="M79.69,44.56h51.96v4.44h-51.96z" fill="#7fc5ed"/>
  <path d="M79.69,72.37h51.96v0.14h-51.96z" fill="#7fc5ed"/>
  <path d="M79.69,69.01h51.96v0.14h-51.96z" fill="#7fc5ed"/>
  <path d="M79.78,49l-0,23.51l-0.09,0l-0,-23.51z" fill="#7fc5ed"/>
  <path d="M114.88,49l-0,23.51l-0.09,0l-0,-23.51z" fill="#7fc5ed"/>
  <path d="M131.65,49l-0,23.51l-0.09,0l-0,-23.51z" fill="#7fc5ed"/>
  <path d="M123.71,99.59H87.54a4.46,4.46 0,0 1,-4.45 -4.45h0a4.47,4.47 0,0 1,4.45 -4.45h36.17a4.47,4.47 0,0 1,4.45 4.45h0A4.46,4.46 0,0 1,123.71 99.59Z" fill="#f6892e"/>
  <path d="M100,92.68a9.12,9.12 0,0 1,1.51 -0.1A2.38,2.38 0,0 1,103 93a1.45,1.45 0,0 1,0.52 1.14,1.59 1.59,0 0,1 -0.45,1.17 2.31,2.31 0,0 1,-1.6 0.51,2.24 2.24,0 0,1 -0.38,0v1.76L100,97.58ZM101.1,94.91a1.94,1.94 0,0 0,0.38 0c0.59,0 1,-0.3 1,-0.8s-0.31,-0.72 -0.87,-0.72a2.11,2.11 0,0 0,-0.46 0Z" fill="#fff"/>
  <path d="M104.91,96.27l-0.35,1.26L103.4,97.53l1.51,-4.91h1.45l1.53,4.91h-1.2l-0.38,-1.26ZM106.15,95.44 L105.85,94.44c-0.09,-0.29 -0.18,-0.65 -0.25,-0.94h0c-0.07,0.29 -0.14,0.66 -0.22,0.94l-0.29,1Z" fill="#fff"/>
  <path d="M109,97.53v-2l-1.55,-2.9h1.27l0.5,1.18c0.15,0.35 0.25,0.62 0.38,0.94h0c0.11,-0.31 0.23,-0.59 0.37,-0.94l0.5,-1.18h1.25l-1.62,2.86v2Z" fill="#fff"/>
  <path d="M145.09,122.15a17.46,17.46 0,0 1,-25.34 15.59c-0.36,-0.18 -0.71,-0.38 -1.06,-0.58A17.53,17.53 0,0 1,112 130a17.46,17.46 0,0 1,15.61 -25.3,17.62 17.62,0 0,1 5.32,0.82 17.4,17.4 0,0 1,8.11 5.48c0.26,0.31 0.51,0.62 0.74,1a17.07,17.07 0,0 1,2.27 4.31A17.46,17.46 0,0 1,145.09 122.15Z" fill="#fedc00"/>
  <path d="M127.631,122.155m-9.737,9.737a13.77,13.77 90,1 1,19.474 -19.474a13.77,13.77 0,1 1,-19.474 19.474" fill="#ebb220"/>
  <path d="M127.282,122.493m-3.163,13.402a13.77,13.77 58.28,1 1,6.326 -26.804a13.77,13.77 58.28,1 1,-6.326 26.804" fill="#fdc010"/>
  <path d="M141.06,111l-2.45,2.87 -0.32,0.37 -17.15,20.06 -0.31,0.37 -2.14,2.5A17.53,17.53 0,0 1,112 130l2.34,-2.73 0.33,-0.39L130,109l0.31,-0.36 2.67,-3.13A17.4,17.4 0,0 1,141.06 111Z" fill="#fdc010"/>
  <path d="M144.07,116.25l-2.9,3.39 -0.34,0.4 -13.57,15.87 -0.3,0.35 -2.6,3.05a17.32,17.32 0,0 1,-4.61 -1.57l2.18,-2.55 0.31,-0.37L139,115.24l0.33,-0.38 2.49,-2.92A17.07,17.07 0,0 1,144.07 116.25Z" fill="#fdc010"/>
  <path d="M133.79,117.78a0.38,0.38 0,0 0,-0.29 -0.11h-2.19a4.52,4.52 0,0 0,-0.82 -1.85h3a0.4,0.4 0,0 0,0.3 -0.11,0.44 0.44,0 0,0 0.11,-0.29v-1.31a0.4,0.4 0,0 0,-0.11 -0.29,0.41 0.41,0 0,0 -0.3,-0.12H122.83a0.41,0.41 0,0 0,-0.3 0.12,0.4 0.4,0 0,0 -0.11,0.29v1.7a0.41,0.41 0,0 0,0.41 0.41h1.85c1.8,0 2.94,0.48 3.43,1.45h-5.28a0.4,0.4 0,0 0,-0.3 0.11,0.44 0.44,0 0,0 -0.11,0.3v1.3a0.4,0.4 0,0 0,0.11 0.29,0.41 0.41,0 0,0 0.3,0.12h5.46a2.53,2.53 0,0 1,-1.31 1.6,5.74 5.74,0 0,1 -2.72,0.55h-1.43a0.41,0.41 0,0 0,-0.41 0.41V124a0.44,0.44 0,0 0,0.11 0.29q2.46,2.61 6.37,7.3a0.39,0.39 0,0 0,0.32 0.15h2.5a0.36,0.36 0,0 0,0.37 -0.23,0.35 0.35,0 0,0 -0.05,-0.43q-3.73,-4.58 -5.87,-6.86a6.48,6.48 0,0 0,3.53 -1.41,4.78 4.78,0 0,0 1.65,-3h2.15a0.42,0.42 0,0 0,0.29 -0.11,0.41 0.41,0 0,0 0.12,-0.3v-1.3A0.41,0.41 0,0 0,133.79 117.78Z" fill="#a36628"/>
  <path d="M160.74,143.65v2.17h-2.18a0.81,0.81 0,0 0,-0.83 0.78v0.05a0.85,0.85 0,0 0,0.24 0.6,0.77 0.77,0 0,0 0.59,0.24h2.18v2.18a0.83,0.83 0,1 0,1.65 0.07v-2.25h2.18a0.85,0.85 0,0 0,0.85 -0.82,0.79 0.79,0 0,0 -0.26,-0.6 0.82,0.82 0,0 0,-0.59 -0.25h-2.18v-2.18a0.81,0.81 0,0 0,-0.81 -0.82,0.77 0.77,0 0,0 -0.59,0.24 0.76,0.76 0,0 0,-0.25 0.58h0Z" fill="#ece5f2"/>
  <path d="M1.22,33.21l1.09,1.88L0.42,36.18A0.8,0.8 0,0 0,0.1 37.27a0.05,0.05 0,0 0,0 0,0.87 0.87,0 0,0 0.51,0.41 0.78,0.78 0,0 0,0.63 -0.09l1.89,-1.09 1.08,1.89a0.84,0.84 0,0 0,1.12 0.35,0.83 0.83,0 0,0 0.35,-1.12l0,-0.06L4.58,35.71l1.89,-1.08a0.87,0.87 0,0 0,0.39 -0.51,0.77 0.77,0 0,0 -0.07,-0.63 0.81,0.81 0,0 0,-0.52 -0.4,0.8 0.8,0 0,0 -0.64,0.09L3.75,34.26 2.66,32.38a0.81,0.81 0,0 0,-1.12 -0.31,0.86 0.86,0 0,0 -0.32,1.14Z" fill="#ece5f2"/>
</svg>
