<?xml version="1.0" ?>
<svg height="401.15" viewBox="0 0 469.15 401.15" width="469.15" xmlns="http://www.w3.org/2000/svg">
  <path d="M112.43,78.48s204,-151 323.14,50.32c0,0 89.86,157.91 -24.45,216.67 0,0 -81.55,64 -225.54,40.89 0,0 -172.86,-34.14 -159.87,-178.82C25.71,207.54 26.74,142.17 112.43,78.48Z" fill="#ebe4f1"/>
  <path d="M202.82,5.14S416.47,19.88 424.43,239.23c0,0 3.63,179.8 -110.85,158 0,0 -95.88,2.31 -201.9,-109.78 0,0 -124,-141.71 -38.24,-243.47C73.44,43.93 106.88,-3.06 202.82,5.14Z" fill="#d3b8fe"/>
  <path d="M369.49,4.18m-4.18,0a4.18,4.18 0,1 1,8.36 0a4.18,4.18 0,1 1,-8.36 0" fill="#ebe4f1"/>
  <path d="M455.91,89.45m-6.41,0a6.41,6.41 0,1 1,12.82 0a6.41,6.41 0,1 1,-12.82 0" fill="#f7f3f8"/>
  <path d="M72.87,362.97m-6.41,0a6.41,6.41 0,1 1,12.82 0a6.41,6.41 0,1 1,-12.82 0" fill="#f7f3f8"/>
  <path d="M66.46,16.33m-6.41,0a6.41,6.41 0,1 1,12.82 0a6.41,6.41 0,1 1,-12.82 0" fill="#e6dcec"/>
  <path d="M428.34,382.79v5.8h-5.8a2.15,2.15 0,0 0,-2.21 2.09v0.12a2.18,2.18 0,0 0,0.63 1.6,2.1 2.1,0 0,0 1.58,0.65h5.8v5.8a2.21,2.21 0,0 0,4.41 0.17,0.48 0.48,0 0,0 0,-0.17v-5.8h5.81a2.19,2.19 0,0 0,1.58 -0.65,2.09 2.09,0 0,0 0.67,-1.56 2.16,2.16 0,0 0,-0.67 -1.6,2.23 2.23,0 0,0 -1.58,-0.65h-5.81v-5.8a2.19,2.19 0,0 0,-3.74 -1.56,2.06 2.06,0 0,0 -0.67,1.56Z" fill="#ebe4f1"/>
  <path d="M3.26,88.49l2.89,5 -5,2.9a2.14,2.14 0,0 0,-0.87 2.91l0.06,0.1a2.19,2.19 0,0 0,1.35 1.07,2.09 2.09,0 0,0 1.69,-0.22l5,-2.9 2.9,5a2.2,2.2 0,1 0,3.9 -2.05,1.09 1.09,0 0,0 -0.08,-0.15l-2.9,-5 5,-2.9a2.16,2.16 0,0 0,1.05 -1.35,2.07 2.07,0 0,0 -0.2,-1.68 2.14,2.14 0,0 0,-1.38 -1.06,2.22 2.22,0 0,0 -1.69,0.23l-5,2.9 -2.9,-5a2.18,2.18 0,0 0,-4 0.52,2 2,0 0,0 0.2,1.68Z" fill="#ebe4f1"/>
  <path d="M66.61,254.81c-2,-2 -2.17,-3.53 -0.72,-5.84s6,1.15 6,1.15V263" fill="#fee372"/>
  <path d="M103.54,270.65c0,3.92 -5.37,6.73 -11.85,6.73H57.09a34.9,34.9 0,0 1,-7.85 -0.84c-5.15,-1.2 -7.49,-3.25 -7.49,-3.25l2.3,-5.54 5.66,0.28Z" fill="#fff"/>
  <path d="M103.54,270.65A47.66,47.66 0,0 1,88.71 273c-6.2,0 -27,-2.75 -37.89,-4.25 -4.09,-0.56 -6.77,-0.95 -6.77,-0.95 -1.64,-2.26 1.59,-10 3.4,-14A6.58,6.58 0,0 1,52.62 250q0.32,0 0.63,0c1.14,0 1.88,1.9 3,3.75s2.38,3.41 4.69,3.41c4.77,0 11,-7 11,-7a121.73,121.73 0,0 0,21.66 12.08s7.88,0 9.8,2S105.07,269.63 103.54,270.65Z" fill="#fb6572"/>
  <path d="M50.82,268.7l-1.58,7.84c-5.15,-1.2 -7.49,-3.25 -7.49,-3.25l2.3,-5.54 5.66,0.28Z" fill="#9dcae0"/>
  <path d="M56.23,253.69c-2.62,-3.3 -7.62,8.05 -5.41,15 -4.09,-0.56 -6.77,-0.95 -6.77,-0.95 -1.64,-2.26 1.59,-10 3.4,-14A6.6,6.6 0,0 1,52.62 250q0.32,0 0.63,0C54.39,249.94 55.13,251.84 56.23,253.69Z" fill="#ea394e"/>
  <path d="M76.09,252.89 L64.51,265.77c-3.92,-2.33 -9.56,-4.24 -13.71,-5.46 -3.13,-0.91 -5.41,-1.44 -5.47,-1.45 0.39,-1.07 0.82,-2.11 1.22,-3.05l5.11,1.67 1.44,0.47a6,6 0,0 0,5 -0.59l1.06,-0.65a4.2,4.2 0,0 0,1.78 0.39,10.88 10.88,0 0,0 5.69,-2.29 34.37,34.37 0,0 0,5.3 -4.68Q74.07,251.6 76.09,252.89Z" fill="#4695bc"/>
  <path d="M103.54,270.65A47.66,47.66 0,0 1,88.71 273c-1.82,0 -4.91,-0.24 -8.63,-0.61h0c0,-2 5,-6.64 8.88,-7 0.69,3.33 4.61,2.39 7.59,1.37s6.82,-2.56 6.82,-2.56C105.28,266.09 105.07,269.63 103.54,270.65Z" fill="#4695bc"/>
  <path d="M51.66,257.48a20.4,20.4 0,0 0,-0.86 2.83c-3.13,-0.91 -5.41,-1.44 -5.47,-1.45 0.39,-1.07 0.82,-2.11 1.22,-3.05Z" fill="#0e708e"/>
  <path d="M89,265.36c-3.83,0.34 -8.88,5 -8.88,7h0c-3.3,-0.33 -7.11,-0.77 -11,-1.25 0,-1.91 -1.88,-3.71 -4.59,-5.32h0l11.58,-12.89a115,115 0,0 0,17.48 9.33C95.36,264 92.8,265 89,265.36Z" fill="#fee372"/>
  <path d="M77.29,257.12a1,1 0,0 1,-0.69 -1.64L79.08,253a1,1 0,0 1,1.36 1.36L78,256.84A1,1 0,0 1,77.29 257.12Z" fill="#fb6572"/>
  <path d="M80.45,258.9a1,1 0,0 1,-0.68 -0.28,1 1,0 0,1 0,-1.37l2.47,-2.47a1,1 0,1 1,1.37 1.36l-2.47,2.48A1,1 0,0 1,80.45 258.9Z" fill="#fb6572"/>
  <path d="M83.62,260.67a1,1 0,0 1,-0.68 -1.64l2.47,-2.47a1,1 0,0 1,1.37 1.36l-2.48,2.47A0.93,0.93 0,0 1,83.62 260.67Z" fill="#fb6572"/>
  <path d="M86.79,262.45a1,1 0,0 1,-0.68 -0.28,1 1,0 0,1 0,-1.37l2.47,-2.47A1,1 0,0 1,90 259.69l-2.48,2.48A1,1 0,0 1,86.79 262.45Z" fill="#fb6572"/>
  <path d="M71.83,255.08a1,1 0,0 1,-0.94 -0.74,1 1,0 0,1 0.48,-1.08 1,1 0,1 1,0.46 1.82Z" fill="#1e2628"/>
  <path d="M138.1,226.65h212.14v136.11h-212.14z" fill="#9ec1df"/>
  <path d="M136.74,342.67h214.87v20.09h-214.87z" fill="#8095c5"/>
  <path d="M338.62,192.08H149.77L138,208.41v32.18h0.21c5.43,0 9.83,-3.59 9.83,-8V224.1h0.08v8.48c0,4.42 4.41,8 9.83,8h1.61c5.43,0 9.83,-3.59 9.83,-8V224.1h0.09v8.48c0,4.42 4.4,8 9.83,8H181c5.43,0 9.83,-3.59 9.83,-8V224.1h0.09v8.48c0,4.42 4.39,8 9.82,8h1.61c5.43,0 9.83,-3.59 9.83,-8V224.1h0.09v8.48c0,4.42 4.4,8 9.83,8h1.61c5.43,0 9.83,-3.59 9.83,-8V224.1h0.08v8.48c0,4.42 4.41,8 9.83,8H245c5.43,0 9.83,-3.59 9.83,-8V224.1h0.09v8.48c0,4.42 4.4,8 9.83,8h1.61c5.42,0 9.83,-3.59 9.83,-8V224.1h0.08v8.48c0,4.42 4.4,8 9.83,8h1.61c5.43,0 9.83,-3.59 9.83,-8V224.1h0.09v8.48c0,4.42 4.4,8 9.83,8h1.61c5.43,0 9.82,-3.59 9.82,-8V224.1h0v8.48c0,4.42 4.4,8 9.83,8h1.61c5.43,0 9.83,-3.59 9.83,-8V224.1h0.08v8.48c0,4.27 4.09,7.75 9.25,8V207.31Z" fill="#ededee"/>
  <path d="M148.1,216.98l-21.35,0l23,-32.02l17.17,0l-18.82,32.02z" fill="#ef5072"/>
  <path d="M169.45,216.98l-21.35,0l18.82,-32.02l17.17,0l-14.64,32.02z" fill="#fbe2ed"/>
  <path d="M190.81,216.98l-21.36,0l14.64,-32.02l17.17,0l-10.45,32.02z" fill="#ef5072"/>
  <path d="M212.16,216.98l-21.35,0l10.45,-32.02l17.18,0l-6.28,32.02z" fill="#fbe2ed"/>
  <path d="M233.52,216.98l-21.36,0l6.28,-32.02l17.17,0l-2.09,32.02z" fill="#ef5072"/>
  <path d="M254.87,216.98l-21.35,0l2.09,-32.02l17.17,0l2.09,32.02z" fill="#fbe2ed"/>
  <path d="M276.23,216.98l-21.36,0l-2.09,-32.02l17.17,0l6.28,32.02z" fill="#ef5072"/>
  <path d="M297.58,216.98l-21.35,0l-6.28,-32.02l17.17,0l10.46,32.02z" fill="#fbe2ed"/>
  <path d="M318.94,216.98l-21.36,0l-10.46,-32.02l17.17,0l14.65,32.02z" fill="#ef5072"/>
  <path d="M340.25,216.98l-21.36,0l-14.64,-32.02l17.18,0l18.82,32.02z" fill="#fbe2ed"/>
  <path d="M361.6,216.98l-21.35,0l-18.82,-32.02l17.17,0l23,32.02z" fill="#ef5072"/>
  <path d="M126.79,216.34v9.12c0,4.42 4.4,8 9.83,8h1.61c5.43,0 9.83,-3.59 9.83,-8v-9.12Z" fill="#b33f5d"/>
  <path d="M148.14,216.34v9.12c0,4.42 4.4,8 9.83,8h1.61c5.43,0 9.83,-3.59 9.83,-8v-9.12Z" fill="#d0d2d3"/>
  <path d="M169.5,216.34v9.12c0,4.42 4.4,8 9.83,8h1.61c5.43,0 9.83,-3.59 9.83,-8v-9.12Z" fill="#b33f5d"/>
  <path d="M190.85,216.34v9.12c0,4.42 4.4,8 9.83,8h1.61c5.43,0 9.83,-3.59 9.83,-8v-9.12Z" fill="#d0d2d3"/>
  <path d="M212.21,216.34v9.12c0,4.42 4.4,8 9.83,8h1.61c5.42,0 9.82,-3.59 9.82,-8v-9.12Z" fill="#b33f5d"/>
  <path d="M233.56,216.34v9.12c0,4.42 4.4,8 9.83,8H245c5.43,0 9.83,-3.59 9.83,-8v-9.12Z" fill="#d0d2d3"/>
  <path d="M254.92,216.34v9.12c0,4.42 4.4,8 9.82,8h1.62c5.42,0 9.82,-3.59 9.82,-8v-9.12Z" fill="#b33f5d"/>
  <path d="M276.27,216.34v9.12c0,4.42 4.4,8 9.83,8h1.61c5.43,0 9.83,-3.59 9.83,-8v-9.12Z" fill="#d0d2d3"/>
  <path d="M297.62,216.34v9.12c0,4.42 4.41,8 9.83,8h1.61c5.43,0 9.83,-3.59 9.83,-8v-9.12Z" fill="#b33f5d"/>
  <path d="M318.94,216.34v9.12c0,4.42 4.4,8 9.82,8h1.62c5.42,0 9.82,-3.59 9.82,-8v-9.12Z" fill="#d0d2d3"/>
  <path d="M340.29,216.34v9.12c0,4.42 4.4,8 9.83,8h1.61c5.43,0 9.83,-3.59 9.83,-8v-9.12Z" fill="#b33f5d"/>
  <path d="M259.83,258.31h63.98v104.44h-63.98z" fill="#fff"/>
  <path d="M263.37,262.33h56.9v100.43h-56.9z" fill="#f69b7a"/>
  <path d="M146.83,258.31h100.79v59.42h-100.79z" fill="#fff"/>
  <path d="M150.36,261.49h93.74v53.06h-93.74z" fill="#00b8f0"/>
  <path d="M194.92,261.49H183.15L151.5,294.68a0.78,0.78 0,0 1,-1.14 0v13.51Z" fill="#31c4f3"/>
  <path d="M239.67,261.49H223.39a0.83,0.83 0,0 1,-0.25 0.63l-50,52.43h15.92Z" fill="#31c4f3"/>
  <path d="M150.36,261.49h93.74v4.1h-93.74z" fill="#009ed8"/>
  <path d="M177.79,258.31h2.93v59.42h-2.93z" fill="#fff"/>
  <path d="M211.58,258.31h2.03v59.42h-2.03z" fill="#fff"/>
  <path d="M319.16,316.14a2.86,2.86 0,1 1,-2.85 -2.85A2.86,2.86 0,0 1,319.16 316.14Z" fill="#fccf67"/>
  <path d="M318.07,317.61a4.17,4.17 0,0 1,-4 -3.29,2.85 2.85,0 1,0 4.62,3.31A4.85,4.85 0,0 1,318.07 317.61Z" fill="#f9b963"/>
  <path d="M318.28,315.15a1,1 0,1 1,-1 -1A1,1 0,0 1,318.28 315.15Z" fill="#fff6a9"/>
  <path d="M128.44,362.76h229.72v6.1h-229.72z" fill="#262f57"/>
  <path d="M46.11,326.94A2.12,2.12 0,0 1,44 324.81a2.15,2.15 0,0 1,2.14 -2.13h26a2.12,2.12 0,0 1,2 1.48l18.45,48.26h43.28a2.14,2.14 0,0 1,0 4.27H91.1a2.11,2.11 0,0 1,-2 -1.38L70.65,326.94Z" fill="#9cb506"/>
  <path d="M91.21,368.81l1.37,3.61h8.3a8.45,8.45 0,0 1,1.17 4.24v0h-11a2.11,2.11 0,0 1,-2 -1.38l-1.55,-4.06a8.3,8.3 0,0 1,3.65 -2.44ZM121.4,372.42h14.15a8.11,8.11 0,0 1,1.2 4.06,1.94 1.94,0 0,1 -0.89,0.21L120.23,376.69v0a8.06,8.06 0,0 1,1.17 -4.24Z" fill="#859c04"/>
  <path d="M76.89,331.39l70.81,0l-12.43,29.36l-47.16,0l-11.22,-29.36z" fill="#f8c602"/>
  <path d="M76.89,331.39l70.81,0l-1.31,3.06l-68.33,0l-1.17,-3.06z" fill="#e8b90a"/>
  <path d="M93.79,383.23a6.56,6.56 0,1 0,-6.54 -6.57,6.55 6.55,0 0,0 6.54,6.57ZM128.49,383.23a6.56,6.56 0,1 0,-6.58 -6.57,6.55 6.55,0 0,0 6.58,6.57Z" fill="#4d4c42"/>
  <path d="M93.79,379.34a2.69,2.69 0,1 0,-2.69 -2.68,2.68 2.68,0 0,0 2.69,2.68Z" fill="#f8c602"/>
  <path d="M128.49,379.34a2.69,2.69 0,1 0,-2.69 -2.68,2.69 2.69,0 0,0 2.69,2.68Z" fill="#f8c602"/>
  <path d="M76.89,331.39l74.63,0l0,-3.14l-75.8,0l1.17,3.14z" fill="#f8c602"/>
  <path d="M88.11,360.75l47.71,0l0,2.79l-46.68,0l-1.03,-2.79z" fill="#e8b90a"/>
  <path d="M125.49,339.54a2.71,2.71 0,1 1,0 5.41,2.71 2.71,0 1,1 0,-5.41ZM116.3,339.54a2.71,2.71 0,1 1,-2.72 2.72,2.7 2.7,0 0,1 2.72,-2.72ZM107.08,339.54a2.71,2.71 0,1 1,-2.69 2.72,2.71 2.71,0 0,1 2.69,-2.72ZM97.89,339.54a2.71,2.71 0,1 1,-2.72 2.72,2.73 2.73,0 0,1 2.72,-2.72ZM88.69,339.54A2.71,2.71 0,1 1,86 342.26a2.73,2.73 0,0 1,2.72 -2.72ZM134.69,339.54a2.71,2.71 0,1 1,-2.72 2.72,2.71 2.71,0 0,1 2.72,-2.72ZM130.07,349.77a2.7,2.7 0,1 1,-2.68 2.72,2.7 2.7,0 0,1 2.68,-2.72ZM120.88,349.77a2.7,2.7 0,1 1,-2.72 2.72,2.7 2.7,0 0,1 2.72,-2.72ZM111.69,349.77a2.7,2.7 0,1 1,-2.72 2.72,2.7 2.7,0 0,1 2.72,-2.72ZM102.5,349.77a2.7,2.7 0,1 1,0 5.4,2.7 2.7,0 1,1 0,-5.4ZM93.31,349.77a2.7,2.7 0,1 1,-2.72 2.72,2.69 2.69,0 0,1 2.72,-2.72Z" fill="#76563c"/>
  <path d="M396.24,272.45l1.61,-0.47a8,8 0,0 0,5.21 1.79,13.54 13.54,0 0,0 5,-1.52l2.58,0.63s-3.89,10.1 -7.19,9.18S396.24,272.45 396.24,272.45Z" fill="#c61937"/>
  <path d="M395,280.92a17.28,17.28 0,0 0,0.35 3.32l0.82,2.16 0.64,4.84h12l0.53,-5.16a16.13,16.13 0,0 0,1.05 -3.24v-2.36a5.06,5.06 0,0 1,0 -0.55c0.12,-1.24 0.72,-5.94 1.27,-6.79l-3.65,-0.89s-2.08,6.66 -5.75,5.89 -4.45,-6.16 -4.45,-6.16l-3.93,1.14S395.89,279.28 395,280.92Z" fill="#ff1900"/>
  <path d="M396.82,291.24h12s7.31,9.17 10.58,19.51 2.95,11.12 2.95,11.12 -8.79,4.43 -16.17,2.8 -17.57,1.86 -22.44,-3C383.75,321.66 391,297.05 396.82,291.24Z" fill="#ff1d3b"/>
  <path d="M413.75,324.66a34.66,34.66 0,0 0,6.59 -1.91c-1.88,-6.58 -9,-27.65 -11.51,-29.06C408.83,293.69 412.73,314.94 413.75,324.66Z" fill="#c61937"/>
  <path d="M406.38,293s6.3,24.72 2.45,26.82S406.38,293 406.38,293Z" fill="#c61937"/>
  <path d="M387.32,323.71c2.92,0.88 6.53,0.7 10.17,0.56 -0.24,-11.63 2.48,-32 2.48,-32C393.89,295.71 389.32,314.14 387.32,323.71Z" fill="#c61937"/>
  <path d="M402.88,293s-3.38,20.29 -0.93,20.29S402.88,293 402.88,293Z" fill="#c61937"/>
  <path d="M400.45,289.93c-3.05,-1.52 -3.92,-12.41 -5.67,-17.06l-0.86,0.25s2,6.16 1.09,7.8a17.28,17.28 0,0 0,0.35 3.32l0.82,2.16 0.64,4.84h12l0.14,-1.41C407.6,290.37 403.12,291.26 400.45,289.93Z" fill="#c61937"/>
  <path d="M402.81,291.8a26.2,26.2 0,0 1,-6.23 -0.48l0.08,-0.62a26.59,26.59 0,0 0,6.15 0.49,33.92 33.92,0 0,0 6.18,-0.5l0,0.62A32.39,32.39 0,0 1,402.81 291.8Z" fill="#4b314c"/>
  <path d="M403.72,291.49a0.61,0.61 0,0 1,-0.08 0.3h-0.95a10.42,10.42 0,0 1,-2.94 -0.41,0.3 0.3,0 0,1 -0.19,-0.34h0a0.3,0.3 0,0 1,0.38 -0.22,11.15 11.15,0 0,0 2.75,0.36h0.94A0.56,0.56 0,0 1,403.72 291.49Z" fill="#745075"/>
  <path d="M403.58,291.79h0a13.25,13.25 0,0 1,-3.83 -0.41,0.3 0.3,0 0,1 -0.19,-0.34 0.31,0.31 0,0 1,0.29 -0.23h0.09a13.17,13.17 0,0 0,3.63 0.36A0.39,0.39 0,0 1,403.58 291.79Z" fill="#745075"/>
  <path d="M403.84,291.78a1.24,1.24 0,0 1,-1.91 0h0.27a1,1 0,0 0,0.68 0.24,1 1,0 0,0 0.7,-0.24c0.53,-0.59 -0.7,-1.17 -1.34,-0.63l-0.28,0a1.17,1.17 0,0 1,0.92 -0.4C403.64,290.74 404.13,291.31 403.84,291.78Z" fill="#ffce00"/>
  <path d="M403.72,291.49a0.08,0.08 0,0 1,-0.08 0.08,0.08 0.08,0 0,1 -0.07,-0.08 0.07,0.07 0,0 1,0.07 -0.08A0.07,0.07 0,0 1,403.72 291.49Z" fill="#3c233d"/>
  <path d="M403.79,291.57h-0.14a0.09,0.09 0,0 1,-0.08 -0.08h0a0.09,0.09 0,0 1,0.08 -0.08h0.14a0.09,0.09 0,0 1,0.08 0.08h0A0.09,0.09 0,0 1,403.79 291.57Z" fill="#ffd15f"/>
  <path d="M403.86,291.47a0.07,0.07 0,0 1,-0.07 0.06h-0.2a0.07,0.07 0,0 0,0.06 0h0.14a0.09,0.09 0,0 0,0.08 -0.08Z" fill="#ff875f"/>
  <path d="M402.35,291a1.24,1.24 0,0 1,1.36 0.18s0,0.12 -0.08,0.07h0A1.17,1.17 0,0 0,402.35 291Z" fill="#fff983"/>
  <path d="M402.35,292.1a1.24,1.24 0,0 0,1.36 -0.19c0.05,-0.05 0,-0.12 -0.07,-0.07h0A1.17,1.17 0,0 1,402.35 292.1Z" fill="#fff983"/>
  <path d="M400.78,279.37a2.49,2.49 0,0 0,-1.9 3.57l0,0.07c1.17,2.23 8.35,3.76 9.92,1.37S411.11,278 400.78,279.37Z" fill="#ffa18b"/>
  <path d="M81.64,176l-0.02,0.03l2.01,4.4l3.84,-4.35l0,-0.08l-5.83,0z" fill="#57b2ce"/>
  <path d="M83.63,180.43l3.84,0l0,-4.35l-3.84,4.35z" fill="#63cbd6"/>
  <path d="M87.47,180.43l-3.84,0l3.84,10.08l0,-10.08z" fill="#a6dae7"/>
  <path d="M81.58,176.07l-4.33,4.36l3.55,0l0.78,-4.36z" fill="#259cb7"/>
  <path d="M83.63,180.43l-2.01,-4.4l-0.04,0.04l-0.78,4.36l2.83,0z" fill="#63cbd6"/>
  <path d="M87.47,190.62l0,-0.11l-3.84,-10.08l-2.83,0l6.67,10.19z" fill="#259cb7"/>
  <path d="M80.8,180.43l-3.55,0l-0.02,0.01l10.24,10.26l0,-0.08l-6.67,-10.19z" fill="#57b2ce"/>
  <path d="M93.3,176l0.03,0.03l-2.02,4.4l-3.84,-4.35l0,-0.08l5.83,0z" fill="#a6dae7"/>
  <path d="M91.31,180.43l-3.84,0l0,-4.35l3.84,4.35z" fill="#57b2ce"/>
  <path d="M87.47,180.43l3.84,0l-3.84,10.08l0,-10.08z" fill="#63cbd6"/>
  <path d="M93.37,176.07l4.33,4.36l-3.56,0l-0.77,-4.36z" fill="#a6dae7"/>
  <path d="M91.31,180.43l2.02,-4.4l0.04,0.04l0.77,4.36l-2.83,0z" fill="#259cb7"/>
  <path d="M87.47,190.62l0,-0.11l3.84,-10.08l2.83,0l-6.67,10.19z" fill="#57b2ce"/>
  <path d="M94.14,180.43l3.56,0l0.02,0.01l-10.25,10.26l0,-0.08l6.67,-10.19z" fill="#63cbd6"/>
  <path d="M83.17,187.61l1.14,1.71l3.16,-0.41l3.16,0.41l1.14,-1.71l-8.6,0z" fill="#f09509"/>
  <path d="M82.48,186.56a0.86,0.86 0,0 0,0.82 1.33h8.35a0.85,0.85 0,0 0,0.81 -1.33l0,-0.05H82.52Z" fill="#ecbb30"/>
  <path d="M93.57,179.56a2.51,2.51 0,0 1,-2.27 -2.23h0a2.49,2.49 0,0 1,-2.24 2.22h0a2.5,2.5 0,0 1,2.24 2.31h0a2.48,2.48 0,0 1,2.27 -2.31Z" fill="#fff"/>
  <path d="M90.25,182.34a3.05,3.05 0,0 1,-2.79 -2.74h0a3,3 0,0 1,-2.74 2.73v0h0a3.06,3.06 0,0 1,2.75 2.83h0a3.07,3.07 0,0 1,2.8 -2.84Z" fill="#fff"/>
  <path d="M87.47,190.55A10.35,10.35 0,1 0,97.82 200.9,10.36 10.36,0 0,0 87.47,190.55ZM87.47,208.72a8.7,8.7 0,1 1,8.7 -8.7A8.7,8.7 0,0 1,87.47 208.72Z" fill="#f09509"/>
  <path d="M87.47,188.63A12.28,12.28 0,1 0,99.75 200.9,12.28 12.28,0 0,0 87.47,188.63ZM87.47,211.25A10.35,10.35 0,1 1,97.82 200.9,10.35 10.35,0 0,1 87.47,211.25Z" fill="#ecbb30"/>
  <path d="M159.4,133.21A38.24,38.24 0,0 1,130.7 158l-13.12,-44Z" fill="#fddd3f"/>
  <path d="M152.7,130.14a32.54,32.54 0,0 1,-24.18 20.58L117.58,114S152.7,130.14 152.7,130.14Z" fill="#faaf41"/>
  <path d="M122.51,130.59l0.8,2.63c6.08,-0.68 8.55,7.65 3.11,10.44l0.8,2.64C136.19,142.36 132,128.86 122.51,130.59Z" fill="#ee4137"/>
  <path d="M148.62,128.27c0.65,5.66 -8.24,6.14 -8.24,0.39a4.15,4.15 0,0 1,1.76 -3.38l-2,-0.92a6.12,6.12 0,0 0,-1.76 4.3c0,7.82 11.61,8.33 12.29,0.54Z" fill="#ee4137"/>
  <path d="M128,122.2a2,2 0,1 1,-2.22 3.29A2,2 0,1 1,128 122.2Z" fill="#4c2c1c"/>
  <path d="M137.83,141.87a2,2 0,1 1,-0.39 -3.15A2.26,2.26 0,0 1,137.83 141.87Z" fill="#4c2c1c"/>
  <path d="M133.66,129.78H132c-0.15,-0.8 -0.79,-2.73 0.83,-2.73h0C134.44,127.05 133.81,129 133.66,129.78Z" fill="#f7ec32"/>
  <path d="M144.06,139.57l-1.18,1.19c-0.67,-0.46 -2.49,-1.36 -1.35,-2.51h0C142.66,137.1 143.59,138.9 144.06,139.57Z" fill="#f7ec32"/>
  <path d="M127.53,139.19l-1.51,-0.73c0.22,-0.78 0.47,-2.8 1.94,-2.1h0C129.41,137.06 128,138.52 127.53,139.19Z" fill="#f7ec32"/>
  <path d="M144.67,130.77H143c-0.14,-0.8 -0.78,-2.73 0.84,-2.73h0C145.45,128 144.82,130 144.67,130.77Z" fill="#f7ec32"/>
  <path d="M123.15,120h-1.67c-0.15,-0.8 -0.79,-2.73 0.83,-2.73h0C123.93,117.31 123.3,119.24 123.15,120Z" fill="#f7ec32"/>
  <path d="M127.62,122.62a0.83,0.83 0,1 1,-1.29 0.1A0.92,0.92 0,0 1,127.62 122.62Z" fill="#d79e84"/>
  <path d="M137.61,141a0.94,0.94 0,1 1,-1.57 -1,0.94 0.94,0 1,1 1.57,1Z" fill="#d79e84"/>
  <path d="M243.06,103.36c0,7.83 -1.19,14.8 -3,19.28H212c-1.84,-4.48 -3,-11.45 -3,-19.28s1.19,-14.8 3,-19.28h28C241.87,88.56 243.06,95.53 243.06,103.36Z" fill="#fee16c"/>
  <path d="M243.06,103.36c0,7.83 -1.19,14.8 -3,19.28 -1.84,-4.48 -3,-11.45 -3,-19.28s1.19,-14.8 3,-19.28C241.87,88.56 243.06,95.53 243.06,103.36Z" fill="#999"/>
  <path d="M240.03,80.84l0,3.24l-28.04,0l0,-3.34l1.17,0.55l1,-0.55l1.17,0.55l1,-0.55l1.17,0.55l1.01,-0.55l1.17,0.55l0.99,-0.55l1.18,0.55l1,-0.55l1.17,0.55l0.99,-0.55l1.18,0.55l1,-0.55l1.17,0.55l1,-0.55l1.17,0.55l1,-0.55l1.17,0.55l1.01,-0.55l1.17,0.55l0.99,-0.55l1.17,0.55l1.01,-0.55l1.17,0.55l0.81,-0.45z" fill="#fff29f"/>
  <path d="M240.03,125.88l0,-3.24l-28.04,0l0,3.34l1.17,-0.55l1,0.55l1.17,-0.55l1,0.55l1.17,-0.55l1.01,0.55l1.17,-0.55l0.99,0.55l1.18,-0.55l1,0.55l1.17,-0.55l0.99,0.55l1.18,-0.55l1,0.55l1.17,-0.55l1,0.55l1.17,-0.55l1,0.55l1.17,-0.55l1.01,0.55l1.17,-0.55l0.99,0.55l1.17,-0.55l1.01,0.55l1.17,-0.55l0.81,0.45z" fill="#e7cc62"/>
  <path d="M233.73,109.72a10.87,10.87 0,1 1,-10.87 -10.87A10.87,10.87 0,0 1,233.73 109.72Z" fill="#fea621"/>
  <path d="M216.73,115.06c0,0.09 0.06,0.16 0.08,0.23s0,0.11 0,0.15a0.57,0.57 0,0 1,0 0.12,0.51 0.51,0 0,1 0,0.12 0.78,0.78 0,0 1,-0.16 0.22,1.85 1.85,0 0,1 -0.28,0.28c-0.11,0.09 -0.24,0.17 -0.37,0.26a3.1,3.1 0,0 1,-0.45 0.21,2.8 2.8,0 0,1 -1,0.17 1.93,1.93 0,0 1,-0.86 -0.23,2.31 2.31,0 0,1 -0.7,-0.63 4.36,4.36 0,0 1,-0.79 -2.26,2.34 2.34,0 0,1 0.18,-1 1.92,1.92 0,0 1,0.55 -0.75,2.9 2.9,0 0,1 0.86,-0.5 3.25,3.25 0,0 1,0.42 -0.11l0.41,0a2,2 0,0 1,0.35 0l0.24,0.06 0.12,0.07a0.35,0.35 0,0 1,0.07 0.09,0.87 0.87,0 0,1 0.08,0.14 1.77,1.77 0,0 1,0.08 0.22,1.26 1.26,0 0,1 0.11,0.43c0,0.1 0,0.15 -0.09,0.17a0.3,0.3 0,0 1,-0.21 0l-0.29,-0.08a2.11,2.11 0,0 0,-0.38 0,1.44 1.44,0 0,0 -0.47,0.09 1,1 0,0 0,-0.63 0.67,2.18 2.18,0 0,0 0.15,1.23 3.09,3.09 0,0 0,0.3 0.63,1.47 1.47,0 0,0 0.38,0.4 0.85,0.85 0,0 0,0.43 0.17,1.1 1.1,0 0,0 0.49,-0.08 1.18,1.18 0,0 0,0.43 -0.24,2.56 2.56,0 0,0 0.28,-0.3 2.29,2.29 0,0 0,0.17 -0.27,0.37 0.37,0 0,1 0.14,-0.14 0.11,0.11 0,0 1,0.08 0,0.22 0.22,0 0,1 0.09,0.08 0.87,0.87 0,0 1,0.09 0.17A2.9,2.9 0,0 1,216.73 115.06Z" fill="#835fab"/>
  <path d="M222.31,113.85a0.17,0.17 0,0 1,0 0.1,0.19 0.19,0 0,1 -0.08,0.1 0.5,0.5 0,0 1,-0.18 0.11,2.42 2.42,0 0,1 -0.31,0.13l-0.32,0.1a0.68,0.68 0,0 1,-0.21 0,0.23 0.23,0 0,1 -0.13,0 0.12,0.12 0,0 1,-0.06 -0.08l-1,-2.61a2.76,2.76 0,0 0,-0.24 -0.51,1.12 1.12,0 0,0 -0.26,-0.27 0.75,0.75 0,0 0,-0.32 -0.13,1 1,0 0,0 -0.37,0 0.91,0.91 0,0 0,-0.43 0.36,2.85 2.85,0 0,0 -0.33,0.72l1.11,3a0.17,0.17 0,0 1,0 0.1,0.31 0.31,0 0,1 -0.08,0.1l-0.19,0.11 -0.31,0.13 -0.31,0.1 -0.22,0 -0.12,0a0.18,0.18 0,0 1,-0.07 -0.08l-2.46,-6.76a0.17,0.17 0,0 1,0 -0.1,0.19 0.19,0 0,1 0.08,-0.11 0.7,0.7 0,0 1,0.18 -0.11,1.93 1.93,0 0,1 0.31,-0.13 1.89,1.89 0,0 1,0.32 -0.1l0.21,0a0.23,0.23 0,0 1,0.13 0,0.16 0.16,0 0,1 0.06,0.08l0.93,2.53a2.74,2.74 0,0 1,0.5 -0.74,1.77 1.77,0 0,1 0.66,-0.42 1.92,1.92 0,0 1,0.85 -0.13,1.41 1.41,0 0,1 0.67,0.23 1.69,1.69 0,0 1,0.51 0.52,3.38 3.38,0 0,1 0.4,0.83Z" fill="#835fab"/>
  <path d="M222.73,106.75a0.76,0.76 0,0 1,0 0.6,1 1,0 0,1 -0.54,0.36 0.9,0.9 0,0 1,-0.64 0.07,0.76 0.76,0 0,1 -0.34,-0.46 0.8,0.8 0,0 1,0 -0.6,1.33 1.33,0 0,1 1.18,-0.44A0.75,0.75 0,0 1,222.73 106.75ZM224.87,112.92a0.12,0.12 0,0 1,0 0.1,0.18 0.18,0 0,1 -0.08,0.1 0.7,0.7 0,0 1,-0.18 0.11l-0.31,0.13 -0.32,0.1 -0.21,0a0.24,0.24 0,0 1,-0.13 0,0.16 0.16,0 0,1 -0.06,-0.08l-1.67,-4.57a0.17,0.17 0,0 1,0 -0.1,0.26 0.26,0 0,1 0.08,-0.11 0.7,0.7 0,0 1,0.18 -0.11,1.86 1.86,0 0,1 0.31,-0.14l0.32,-0.09 0.21,0a0.23,0.23 0,0 1,0.13 0s0.05,0 0.07,0.08Z" fill="#835fab"/>
  <path d="M229.92,108.41a5.28,5.28 0,0 1,0.27 1.15,2.75 2.75,0 0,1 -0.08,1 1.88,1.88 0,0 1,-0.44 0.76,2.1 2.1,0 0,1 -0.79,0.5 1.39,1.39 0,0 1,-0.38 0.09,1.09 1.09,0 0,1 -0.36,0 1.8,1.8 0,0 1,-0.39 -0.08l-0.42,-0.16 0.79,2.15a0.21,0.21 0,0 1,0 0.11,0.24 0.24,0 0,1 -0.08,0.1 0.7,0.7 0,0 1,-0.18 0.12l-0.31,0.13a1.89,1.89 0,0 1,-0.32 0.1l-0.21,0a0.23,0.23 0,0 1,-0.13 0,0.27 0.27,0 0,1 -0.07,-0.08l-2.33,-6.4a0.38,0.38 0,0 1,0 -0.1,0.17 0.17,0 0,1 0.07,-0.1 0.74,0.74 0,0 1,0.16 -0.1,1.35 1.35,0 0,1 0.26,-0.11 1.23,1.23 0,0 1,0.26 -0.08l0.18,0 0.12,0a0.16,0.16 0,0 1,0.05 0.08l0.2,0.54c0.09,-0.19 0.17,-0.36 0.26,-0.51a2.55,2.55 0,0 1,0.3 -0.41,2 2,0 0,1 0.36,-0.3 1.93,1.93 0,0 1,0.43 -0.22,1.83 1.83,0 0,1 0.93,-0.11 1.6,1.6 0,0 1,0.78 0.33,2.56 2.56,0 0,1 0.62,0.68A4.83,4.83 0,0 1,229.92 108.41ZM228.6,108.99a3.43,3.43 0,0 0,-0.25 -0.55A1.55,1.55 0,0 0,228 108a0.88,0.88 0,0 0,-0.4 -0.24,0.8 0.8,0 0,0 -0.48,0 1.41,1.41 0,0 0,-0.24 0.13,1.49 1.49,0 0,0 -0.21,0.22 1.69,1.69 0,0 0,-0.18 0.33,2.51 2.51,0 0,0 -0.17,0.45l0.55,1.51a3,3 0,0 0,0.71 0.34,0.83 0.83,0 0,0 0.58,0 0.76,0.76 0,0 0,0.39 -0.28,1.1 1.1,0 0,0 0.16,-0.45 1.51,1.51 0,0 0,0 -0.52A2.61,2.61 0,0 0,228.6 109Z" fill="#835fab"/>
  <path d="M234.51,107.94a1.5,1.5 0,0 1,0.1 0.74,1.41 1.41,0 0,1 -0.23,0.65 2,2 0,0 1,-0.52 0.53,3.78 3.78,0 0,1 -0.75,0.39 3.55,3.55 0,0 1,-0.51 0.14,2.68 2.68,0 0,1 -0.45,0 1.39,1.39 0,0 1,-0.36 0,0.6 0.6,0 0,1 -0.22,-0.05 0.35,0.35 0,0 1,-0.15 -0.13,1.3 1.3,0 0,1 -0.15,-0.33 2.3,2.3 0,0 1,-0.08 -0.25,1 1,0 0,1 0,-0.15 0.12,0.12 0,0 1,0 -0.09,0.1 0.1,0 0,1 0.07,-0.05 0.43,0.43 0,0 1,0.19 0l0.32,0h0.44a2.21,2.21 0,0 0,0.52 -0.11l0.29,-0.15a0.73,0.73 0,0 0,0.2 -0.19,0.5 0.5,0 0,0 0.09,-0.23 0.55,0.55 0,0 0,0 -0.25,0.43 0.43,0 0,0 -0.19,-0.23 0.8,0.8 0,0 0,-0.32 -0.1,2.77 2.77,0 0,0 -0.42,0h-0.46a3.91,3.91 0,0 1,-0.48 0,1.7 1.7,0 0,1 -0.45,-0.15 1.27,1.27 0,0 1,-0.4 -0.3,1.62 1.62,0 0,1 -0.3,-0.52 1.49,1.49 0,0 1,-0.09 -0.65,1.47 1.47,0 0,1 0.2,-0.61 1.79,1.79 0,0 1,0.48 -0.52,3 3,0 0,1 1.17,-0.51l0.39,-0.06a1.7,1.7 0,0 1,0.32 0,0.69 0.69,0 0,1 0.19,0l0.1,0 0.06,0.08a0.76,0.76 0,0 1,0.07 0.13l0.08,0.19a1.83,1.83 0,0 1,0.07 0.23,0.49 0.49,0 0,1 0,0.15 0.2,0.2 0,0 1,0 0.09l-0.07,0h-0.16l-0.29,0h-0.38a1.7,1.7 0,0 0,-0.46 0.11,1.31 1.31,0 0,0 -0.29,0.14 0.7,0.7 0,0 0,-0.17 0.18,0.53 0.53,0 0,0 -0.07,0.2 0.76,0.76 0,0 0,0 0.21,0.38 0.38,0 0,0 0.2,0.23 1,1 0,0 0,0.32 0.1,2.82 2.82,0 0,0 0.42,0h0.47a2.61,2.61 0,0 1,0.48 0,1.45 1.45,0 0,1 0.46,0.14 1.27,1.27 0,0 1,0.4 0.3A1.56,1.56 0,0 1,234.51 107.94Z" fill="#835fab"/>
  <path d="M260.6,97.62a1.36,1.36 0,0 1,0 0.2v30.05a1.5,1.5 0,0 1,-1.57 1.43H244.16a1.5,1.5 0,0 1,-1.56 -1.43V97.82c0,-0.07 0,-0.13 0,-0.2h0c0,-0.19 0,-0.38 0,-0.58a9,9 0,0 1,5.74 -8.4V72.54h0.1a0.86,0.86 0,0 1,-0.75 -0.94V69.51a0.85,0.85 0,0 1,0.75 -0.93h6.35a0.85,0.85 0,0 1,0.74 0.93V71.6a0.86,0.86 0,0 1,-0.74 0.94h0.08v16.1a9,9 0,0 1,5.75 8.4c0,0.2 0,0.39 0,0.58Z" fill="#015e5f"/>
  <path d="M254.18,65.78v2.8H249v-2.8a0.78,0.78 0,0 1,0.78 -0.78h3.57A0.78,0.78 0,0 1,254.18 65.78Z" fill="#fee1b8"/>
  <path d="M247.3,90.27c-2,0.87 -3.11,3.45 -3,5.55 0,1.08 3.42,0.88 3.38,-0.23a5.31,5.31 0,0 1,2.14 -4.27c0.42,-0.3 0.27,-0.86 -0.15,-1.15a2.47,2.47 0,0 0,-2.34 0.1Z" fill="#fff"/>
  <path d="M260,97.62a1.36,1.36 0,0 1,0 0.2v30.05a1.5,1.5 0,0 1,-1.57 1.43h-2.57a1.5,1.5 0,0 0,1.57 -1.43V97.82a1.36,1.36 0,0 0,0 -0.2h0c0,-0.19 0,-0.38 0,-0.58a9,9 0,0 0,-5.75 -8.4V72.54h-0.08a0.86,0.86 0,0 0,0.73 -0.94V69.51a0.85,0.85 0,0 0,-0.73 -0.93h2.57a0.85,0.85 0,0 1,0.73 0.93V71.6a0.86,0.86 0,0 1,-0.73 0.94h0.08v16.1A9,9 0,0 1,260 97c0,0.2 0,0.39 0,0.58Z" fill="#999"/>
  <path d="M242.6,101.55h18.02v17.33h-18.02z" fill="#fff"/>
  <path d="M250,109.33l0.57,0.47l1.04,-3.04l-1.04,-3.04l-0.57,0.47l-3.43,-0.72l0.55,1.74l0,0.06l-3.04,1.49l3.04,1.49l0,0.06l-0.54,1.75l3.42,-0.73z" fill="#82c965"/>
  <path d="M253.21,109.34l-0.57,0.47l-1.03,-3.04l1.04,-3.05l0.56,0.47l3.43,-0.71l-0.54,1.74l0,0.06l3.03,1.49l-3.04,1.49l0,0.06l0.55,1.74l-3.43,-0.72z" fill="#82c965"/>
  <path d="M259.14,106.78l-3.04,1.48l0,0.06l0.54,1.74l-3.42,-0.72l-0.57,0.47l-1.04,-3.05l7.53,0.02z" fill="#999"/>
  <path d="M244.08,106.77l3.04,1.49l0,0.06l-0.54,1.74l3.42,-0.72l0.57,0.47l1.04,-3.05l-7.53,0.01z" fill="#999"/>
  <path d="M250,108.73a1.69,1.69 0,1 1,-1.69 -1.69A1.68,1.68 0,0 1,250 108.73Z" fill="#835fab"/>
  <path d="M253.57,108.73a1.69,1.69 0,0 1,-3.37 0,1.69 1.69,0 1,1 3.37,0Z" fill="#835fab"/>
  <path d="M251.78,111.87a1.69,1.69 0,1 1,-3.37 0,1.69 1.69,0 0,1 3.37,0Z" fill="#835fab"/>
  <path d="M253.57,115a1.69,1.69 0,0 1,-3.37 0,1.69 1.69,0 1,1 3.37,0Z" fill="#835fab"/>
  <path d="M255.37,111.87a1.69,1.69 0,1 1,-1.68 -1.68A1.69,1.69 0,0 1,255.37 111.87Z" fill="#835fab"/>
  <path d="M257.17,108.73a1.69,1.69 0,1 1,-1.68 -1.69A1.68,1.68 0,0 1,257.17 108.73Z" fill="#835fab"/>
  <path d="M266.77,123.41s0,0 0,0l-0.29,-0.23h0a4.34,4.34 0,0 1,-0.53 -0.52,1.89 1.89,0 0,1 0.61,0.46h0s0,0 0,0.06a0.18,0.18 0,0 1,0.06 0.08A0.34,0.34 0,0 1,266.77 123.41Z" fill="#fff054"/>
  <path d="M265,127.31l-0.05,0 -0.32,0.27a12.37,12.37 0,0 1,-9.56 2.39h0a14.56,14.56 0,0 1,-3.15 -0.86,16.31 16.31,0 0,1 -5.39,-3.35h0a13.37,13.37 0,0 1,-2.19 -2.68,11.65 11.65,0 0,1 -1.93,-6.09 8.13,8.13 0,0 1,0.38 -1.52l0,-0.65a0.7,0.7 0,0 0,0.4 0.17,0.52 0.52,0 0,0 0.18,-0.08 0.66,0.66 0,0 0,0.13 -0.08,0.76 0.76,0 0,1 0.16,-0.11h0a1.66,1.66 0,0 1,0.4 -0.27,1.66 1.66,0 0,0 0.39,-0.15l0.09,-0.06 0.29,0.23a2.45,2.45 0,0 1,1.38 0.59c0.94,0.76 6.08,11 17.91,7.43a2.56,2.56 0,0 1,1.81 0.16,1.89 1.89,0 0,1 0.61,0.46l0.05,0a0.18,0.18 0,0 1,0.06 0.08,0.34 0.34,0 0,1 0.09,0.14s0,0 0,0a0.69,0.69 0,0 1,0 0.13l0,0C267.19,124.55 266.48,126 265,127.31Z" fill="#fff054"/>
  <path d="M244.57,114.27l-0.09,0.06a1.66,1.66 0,0 1,-0.39 0.15,1.66 1.66,0 0,0 -0.4,0.27 1.38,1.38 0,0 1,-0.48 0.28,0.7 0.7,0 0,1 -0.4,-0.17l0,-0.42 1.25,-0.56Z" fill="#604b3b"/>
  <path d="M244.11,125.83l-0.07,0.09c-0.09,0.11 0,0.36 -0.17,0.47s-0.36,0.06 -0.48,0.22 -0.29,0.67 -0.42,0.74a0.4,0.4 0,0 1,-0.45 -0.25l-0.13,-0.33 1.07,-1Z" fill="#604b3b"/>
  <path d="M274.72,119.06a1.65,1.65 0,0 1,-0.68 1.13c-0.31,0.16 -1.33,-0.23 -1.44,0.06s-0.76,3.23 -1.66,4.38a3.64,3.64 0,0 0,0.05 -0.91h0a1.66,1.66 0,0 0,-0.18 -0.63,1.74 1.74,0 0,0 -0.11,-0.18 0.93,0.93 0,0 0,-0.14 -0.14,0.35 0.35,0 0,0 -0.13,-0.08 1.05,1.05 0,0 0,-0.32 -0.15h0a3.43,3.43 0,0 0,-2.73 0.64l-0.45,0.35 -0.11,-0.09s0,0 0,0a0.28,0.28 0,0 0,-0.09 -0.14,0.18 0.18,0 0,0 -0.06,-0.08s0,0 0,-0.06h0a1.89,1.89 0,0 0,-0.61 -0.46s0,-0.05 -0.06,-0.07c1,-0.34 1.49,-1.45 1.94,-2.35 0.35,-0.67 0.59,-1.52 0.24,-1.77 0.26,-1.26 0.89,-0.94 2.09,-0.94a11.87,11.87 0,0 1,3.32 0.11C274.78,118.53 274.8,118.6 274.72,119.06Z" fill="#fff054"/>
  <path d="M274.72,119.05a1.58,1.58 0,0 1,-0.68 1.13c-0.31,0.16 -1.33,-0.23 -1.44,0.07s-0.75,3.22 -1.66,4.37a3.22,3.22 0,0 0,0.05 -0.91l-0.11,-0.47a7.67,7.67 0,0 0,0.82 -2.11c0.09,-0.29 0.19,-1.11 0.42,-1.33s0.45,0 0.69,-0.26c0,0 0,0 0,0a12.64,12.64 0,0 0,0.66 -1.86C274.78,118.52 274.8,118.59 274.72,119.05Z" fill="#999"/>
  <path d="M269.76,122.47c-0.16,-0.14 -0.42,-0.1 -0.72,0a3.55,3.55 0,0 0,-1.69 0.67l-0.44,0.34h-0.08s0,0 0,0a0.14,0.14 0,0 0,0 0.06c0.32,0.94 -0.39,2.39 -1.87,3.7 0,0 0,0 0,0s0,0 0,0l-0.32,0.27a12.41,12.41 0,0 1,-9.49 2.39h0a15,15 0,0 1,-3.21 -0.87,16.4 16.4,0 0,1 -5.37,-3.33 13.69,13.69 0,0 1,-2.22 -2.69,11.65 11.65,0 0,1 -1.93,-6.09 8.13,8.13 0,0 1,0.38 -1.52l0,-0.65h0a0.7,0.7 0,0 0,0.4 0.17h0a0.33,0.33 0,0 0,0.14 -0.06l0.13,-0.08a0.76,0.76 0,0 1,0.16 -0.11c0.85,3.21 3.81,6.13 6.09,7.87a14.85,14.85 0,0 0,8.72 3.25,11.61 11.61,0 0,0 8,-2.68h0l0.07,-0.06h0c0.3,-0.44 2.06,-1.21 2.36,-1.65s0.75,-2.19 1.37,-1.86A10.43,10.43 0,0 1,269.76 122.47Z" fill="#999"/>
  <path d="M270.94,124.63c-0.33,2 -2,4.92 -5.09,7.22l-0.49,0.37a16.68,16.68 0,0 1,-2.8 1.57c-0.41,0.18 -0.83,0.34 -1.27,0.5a17.53,17.53 0,0 1,-3.58 0.85,17 17,0 0,1 -8.41,-0.78c-0.32,-0.12 -0.62,-0.25 -0.92,-0.38l-0.43,-0.21a12.79,12.79 0,0 1,-2.18 -1.39l-0.3,-0.24a13.73,13.73 0,0 1,-1.43 -1.43l-0.42,-0.53c-0.11,-0.17 -0.23,-0.32 -0.32,-0.47a4.59,4.59 0,0 1,-0.39 -0.74,5.08 5.08,0 0,1 -0.18,-1.35l-0.21,-0.51a1,1 0,0 0,0.47 -0.06l0,0 0,0a0.35,0.35 0,0 0,0.11 -0.1,0.6 0.6,0 0,0 0.11,-0.12l0.13,-0.17a2.46,2.46 0,0 1,0.3 -0.4,2.08 2.08,0 0,0 0.35,-0.29 0.47,0.47 0,0 0,0.06 -0.09l0.39,0a3.5,3.5 0,0 1,1.64 -0.19,2 2,0 0,1 0.38,0.11h0c2.19,0.78 10.54,4.87 20.3,-2.25a0,0 0,0 1,0 0l0,0 0.45,-0.35a3.55,3.55 0,0 1,1.69 -0.67,2.2 2.2,0 0,1 0.72,0 3,3 0,0 1,0.32 0.06h0a1.57,1.57 0,0 1,0.32 0.15l0.13,0.08 0.14,0.14a1.74,1.74 0,0 1,0.11 0.18,1.66 1.66,0 0,1 0.18,0.63h0A3.64,3.64 0,0 1,270.94 124.63Z" fill="#fff054"/>
  <path d="M270.94,124.63c-0.33,2 -2,4.92 -5.09,7.22l-0.49,0.37a16.68,16.68 0,0 1,-2.8 1.57c-0.41,0.18 -0.83,0.34 -1.27,0.5a17.53,17.53 0,0 1,-3.58 0.85,17 17,0 0,1 -8.41,-0.78c-0.32,-0.12 -0.62,-0.25 -0.92,-0.38l-0.43,-0.21a12.79,12.79 0,0 1,-2.18 -1.39l-0.3,-0.24a13.73,13.73 0,0 1,-1.43 -1.43l-0.42,-0.53c-0.11,-0.17 -0.23,-0.32 -0.32,-0.47a4.59,4.59 0,0 1,-0.39 -0.74,5.08 5.08,0 0,1 -0.18,-1.35l-0.21,-0.51h0A1,1 0,0 0,243 127h0l0,0a0.35,0.35 0,0 0,0.11 -0.1,0.6 0.6,0 0,0 0.11,-0.12l0.12,-0.17h0c2.07,2.1 6.22,3 9.22,3.3 0.84,0.07 1.64,0.1 2.45,0.1h0.08a19.8,19.8 0,0 0,7.67 -1.62,15.86 15.86,0 0,0 2.15,-1.06s0,0 0,0a15.84,15.84 0,0 0,3.47 -2.7,12.09 12.09,0 0,0 1.61,-2.08h0a1.05,1.05 0,0 1,0.32 0.15,0.35 0.35,0 0,1 0.13,0.08 0.93,0.93 0,0 1,0.14 0.14,1.74 1.74,0 0,1 0.11,0.18 1.66,1.66 0,0 1,0.18 0.63h0A3.64,3.64 0,0 1,270.94 124.63Z" fill="#999"/>
  <path d="M274.42,119.57c-0.16,0.49 -0.43,0 -0.72,-0.12s-0.47,0 -0.47,-0.32a6.11,6.11 0,0 1,0.32 -1,1.67 1.67,0 0,1 0.29,0 2.09,2.09 0,0 1,0.77 0.59C274.76,119 274.5,119.33 274.42,119.57Z" fill="#989291"/>
  <path d="M237.19,125.28c-0.43,3.54 -2.95,6.63 -6.41,6.94 -4.17,0.31 -9.21,-2.78 -8.93,-7.79 0.29,-5.17 5.26,-5.33 8.93,-4.86C234.55,119.79 237.69,121.34 237.19,125.28Z" fill="#ff4000"/>
  <path d="M234.88,130.22a6.56,6.56 0,0 1,-4.1 2c-4.17,0.31 -9.21,-2.78 -8.93,-7.79a5.77,5.77 0,0 1,0.63 -2.42,7.27 7.27,0 0,0 4.43,7.78 13.17,13.17 0,0 0,4.84 0.77,15.6 15.6,0 0,0 2.64,-0.23A2.68,2.68 0,0 0,234.88 130.22Z" fill="#999"/>
  <path d="M230.74,120.72c-0.12,0.47 0.77,1.37 1.6,1.35a1.65,1.65 0,0 1,-1.62 0.07,2.66 2.66,0 0,1 -0.72,-0.56c-0.31,-0.28 -0.4,-0.29 -0.62,-0.13s-0.39,0.39 -0.74,0.62a1.26,1.26 0,0 1,-1.26 0c0.65,0 0.76,-0.46 1.34,-1.33 -1.12,-0.57 -1.26,-2.57 -1.22,-3.65a3.48,3.48 0,0 0,1.5 2.43,9 9,0 0,0 0.42,-1.34 4.62,4.62 0,0 1,0.5 -1.11,7.84 7.84,0 0,0 0,1.37 4.83,4.83 0,0 0,0.23 1.27c0.51,0.73 2.12,-0.13 2.88,-0.59a3.26,3.26 0,0 1,-1.27 1.18A5.22,5.22 0,0 0,230.74 120.72Z" fill="#12491d"/>
  <path d="M235.45,121.51a1.46,1.46 0,0 0,-0.24 -0.17,0.4 0.4,0 0,0 -0.67,0.11c-0.28,0.7 -1.5,0.76 -1.59,1.52a0.63,0.63 0,0 0,0.54 0.71l0.09,0c0.1,0 0.21,0.06 0.31,0.09l0.23,0.11c0.21,0.07 0.44,0.08 0.65,0.14a2.11,2.11 0,0 0,1 0.14,0.65 0.65,0 0,0 0.21,-0.06 0.44,0.44 0,0 0,0.36 -0.18C236.92,123.14 236.11,122.06 235.45,121.51Z" fill="#f2f2f2"/>
  <path d="M376.49,185.09L414.34,185.09A1.74,1.74 0,0 1,416.08 186.83L416.08,239.1A1.74,1.74 0,0 1,414.34 240.84L376.49,240.84A1.74,1.74 0,0 1,374.75 239.1L374.75,186.83A1.74,1.74 0,0 1,376.49 185.09z" fill="#f8feff"/>
  <path d="M409.14,213a13.73,13.73 0,1 1,-13.73 -13.72A13.73,13.73 0,0 1,409.14 213Z" fill="#95d8e9"/>
  <path d="M406.2,213a10.79,10.79 0,1 1,-10.79 -10.79A10.79,10.79 0,0 1,406.2 213Z" fill="#4dbfd9"/>
  <path d="M374.75,188.66h41.33v7.88h-41.33z" fill="#95d8e9"/>
  <path d="M402.79,189.85L411.8,189.85A0.41,0.41 0,0 1,412.21 190.26L412.21,194.94A0.41,0.41 0,0 1,411.8 195.35L402.79,195.35A0.41,0.41 0,0 1,402.38 194.94L402.38,190.26A0.41,0.41 0,0 1,402.79 189.85z" fill="#556270"/>
  <path d="M404.11,233.36h3.36a2.41,2.41 0,0 1,2.41 2.41v5.07a0,0 0,0 1,0 0H401.7a0,0 0,0 1,0 0v-5.07A2.41,2.41 0,0 1,404.11 233.36Z" fill="#95d8e9"/>
  <path d="M398,192.6a1.87,1.87 0,1 1,-1.87 -1.86A1.87,1.87 0,0 1,398 192.6Z" fill="#f2f2f2"/>
  <path d="M387.65,190.33h1.07v1.07h-1.07z" fill="#fff"/>
  <path d="M389.45,190.33h1.07v1.07h-1.07z" fill="#fff"/>
  <path d="M391.24,190.33h1.07v1.07h-1.07z" fill="#fff"/>
  <path d="M387.65,192.06h1.07v1.07h-1.07z" fill="#fff"/>
  <path d="M389.45,192.06h1.07v1.07h-1.07z" fill="#fff"/>
  <path d="M391.24,192.06h1.07v1.07h-1.07z" fill="#fff"/>
  <path d="M387.65,193.8h1.07v1.07h-1.07z" fill="#fff"/>
  <path d="M389.45,193.8h1.07v1.07h-1.07z" fill="#fff"/>
  <path d="M391.24,193.8h1.07v1.07h-1.07z" fill="#fff"/>
  <path d="M375.49,189.43h10.02v7.1h-10.02z" fill="#4dbfd9"/>
  <path d="M398.03,213.04a3.21,5.71 0,1 0,6.42 0a3.21,5.71 0,1 0,-6.42 0z" fill="#95d8e9"/>
  <path d="M404.3,192a0.11,0.11 0,0 1,-0.11 0.11h-0.69a0.09,0.09 0,0 1,-0.08 0,0.1 0.1,0 0,1 0,-0.15l0.57,-0.52a0.24,0.24 0,0 0,0.08 -0.19,0.24 0.24,0 0,0 -0.25,-0.25 0.23,0.23 0,0 0,-0.17 0.07l-0.06,0.05a0.11,0.11 0,1 1,-0.14 -0.16l0.06,0a0.42,0.42 0,0 1,0.31 -0.12,0.47 0.47,0 0,1 0.32,0.81l-0.37,0.33h0.41A0.11,0.11 0,0 1,404.3 192Z" fill="#c7f464"/>
  <path d="M404.57,191.22a0.47,0.47 0,0 1,0.47 -0.47,0.46 0.46,0 0,1 0.47,0.42h0s0,0.07 0,0.11a1.12,1.12 0,0 1,-0.07 0.4,0.68 0.68,0 0,1 -0.25,0.33 0.56,0.56 0,0 1,-0.29 0.1,0.12 0.12,0 0,1 -0.12,-0.11 0.11,0.11 0,0 1,0.11 -0.11,0.28 0.28,0 0,0 0.18,-0.06 0.3,0.3 0,0 0,0.12 -0.13l0,0a0.58,0.58 0,0 1,-0.19 0A0.47,0.47 0,0 1,404.57 191.22ZM404.78,191.22A0.26,0.26 0,1 0,405 191,0.26 0.26,0 0,0 404.78,191.22Z" fill="#c7f464"/>
  <path d="M406,191.06a0.15,0.15 0,0 1,0.15 0.14,0.15 0.15,0 0,1 -0.15,0.15 0.15,0.15 0,0 1,-0.14 -0.15A0.14,0.14 0,0 1,406 191.06ZM406,191.83a0.15,0.15 0,0 1,0.15 0.15,0.15 0.15,0 0,1 -0.15,0.14 0.14,0.14 0,0 1,-0.14 -0.14A0.15,0.15 0,0 1,406 191.83Z" fill="#c7f464"/>
  <path d="M407,191.28a0.51,0.51 0,0 1,0.14 0.34,0.52 0.52,0 0,1 -0.14,0.35 0.49,0.49 0,0 1,-0.34 0.14h0a0.48,0.48 0,0 1,-0.34 -0.14,0.1 0.1,0 0,1 0,-0.16 0.11,0.11 0,0 1,0.15 0,0.27 0.27,0 0,0 0.19,0.08 0.25,0.25 0,0 0,0.18 -0.08,0.27 0.27,0 0,0 0.08,-0.19 0.22,0.22 0,0 0,-0.08 -0.18,0.25 0.25,0 0,0 -0.18,-0.08 0.27,0.27 0,0 0,-0.19 0.08,0.11 0.11,0 0,1 -0.15,0l0,0h0v0h0a0,0 0,0 1,0 0l0,-0.51a0.22,0.22 0,0 1,0.05 -0.08H407a0.1,0.1 0,0 1,0.11 0.11,0.12 0.12,0 0,1 -0.11,0.11h-0.48l0,0.19 0.13,0A0.49,0.49 0,0 1,407 191.28Z" fill="#c7f464"/>
  <path d="M407.45,191.22a0.47,0.47 0,0 1,0.47 -0.47,0.46 0.46,0 0,1 0.47,0.42h0a0.41,0.41 0,0 1,0 0.11,1.12 1.12,0 0,1 -0.07,0.4 0.68,0.68 0,0 1,-0.25 0.33,0.56 0.56,0 0,1 -0.29,0.1 0.13,0.13 0,0 1,-0.12 -0.11,0.11 0.11,0 0,1 0.11,-0.11 0.28,0.28 0,0 0,0.18 -0.06,0.3 0.3,0 0,0 0.12,-0.13l0,0a0.58,0.58 0,0 1,-0.19 0A0.47,0.47 0,0 1,407.45 191.22ZM407.67,191.22a0.26,0.26 0,0 0,0.51 0,0.26 0.26,0 1,0 -0.51,0Z" fill="#c7f464"/>
  <path d="M400.4,216.12L433.75,216.12A2.17,2.17 0,0 1,435.92 218.29L435.92,238.67A2.17,2.17 0,0 1,433.75 240.84L400.4,240.84A2.17,2.17 0,0 1,398.23 238.67L398.23,218.29A2.17,2.17 0,0 1,400.4 216.12z" fill="#beddfc"/>
  <path d="M408.42,218.74h24.45v19.54h-24.45z" fill="#424242"/>
  <path d="M432.87,238.28l-24.45,-19.54l24.45,0l0,19.54z" fill="#4f4f4f"/>
  <path d="M401.81,231.2h0.78v0.78h-0.78z" fill="#bcbcbc"/>
  <path d="M403.14,231.2h0.78v0.78h-0.78z" fill="#bcbcbc"/>
  <path d="M404.48,231.2h0.78v0.78h-0.78z" fill="#bcbcbc"/>
  <path d="M401.81,232.46h0.78v0.78h-0.78z" fill="#bcbcbc"/>
  <path d="M403.14,232.46h0.78v0.78h-0.78z" fill="#bcbcbc"/>
  <path d="M404.48,232.46h0.78v0.78h-0.78z" fill="#bcbcbc"/>
  <path d="M401.81,233.72h0.78v0.78h-0.78z" fill="#bcbcbc"/>
  <path d="M403.14,233.72h0.78v0.78h-0.78z" fill="#bcbcbc"/>
  <path d="M404.48,233.72h0.78v0.78h-0.78z" fill="#bcbcbc"/>
  <path d="M401.81,234.98h0.78v0.78h-0.78z" fill="#bcbcbc"/>
  <path d="M403.14,234.98h0.78v0.78h-0.78z" fill="#bcbcbc"/>
  <path d="M404.48,234.98h0.78v0.78h-0.78z" fill="#bcbcbc"/>
  <path d="M400.54,218.74h5.99v5.24h-5.99z" fill="#34495e"/>
  <path d="M402,221.36a1.2,1.2 0,0 1,0.18 -0.64,0.61 0.61,0 0,1 0.51,-0.3 0.62,0.62 0,0 1,0.5 0.3,1.25 1.25,0 0,1 0,1.29 0.64,0.64 0,0 1,-0.5 0.3,0.63 0.63,0 0,1 -0.51,-0.3A1.21,1.21 0,0 1,402 221.36ZM403.07,221.36a1,1 0,0 0,-0.13 -0.48,0.28 0.28,0 0,0 -0.51,0 0.88,0.88 0,0 0,-0.13 0.48,0.83 0.83,0 0,0 0.13,0.48 0.28,0.28 0,0 0,0.51 0A0.91,0.91 0,0 0,403.05 221.36Z" fill="#c7f464"/>
  <path d="M404.9,221.16a0.66,0.66 0,0 1,0.19 0.47,0.68 0.68,0 0,1 -0.19,0.48 0.69,0.69 0,0 1,-0.48 0.2,0.67 0.67,0 0,1 -0.47,-0.2 0.16,0.16 0,0 1,0 -0.22,0.15 0.15,0 0,1 0.21,0 0.36,0.36 0,0 0,0.52 0,0.36 0.36,0 0,0 0.11,-0.26 0.36,0.36 0,0 0,-0.11 -0.25,0.33 0.33,0 0,0 -0.26,-0.11 0.16,0.16 0,0 1,-0.11 -0.05h0a0.17,0.17 0,0 1,0 -0.22l0.28,-0.28h-0.44a0.15,0.15 0,0 1,-0.15 -0.15,0.15 0.15,0 0,1 0.15,-0.15h0.8a0.14,0.14 0,0 1,0.15 0.15,0.19 0.19,0 0,1 0,0.07 0.08,0.08 0,0 1,0 0l-0.34,0.35A0.59,0.59 0,0 1,404.9 221.16Z" fill="#c7f464"/>
  <path d="M405.55,228.48a2,2 0,1 1,-2 -2A2,2 0,0 1,405.55 228.48Z" fill="#bcbcbc"/>
  <path d="M403.25,227.07h0.58v2.82h-0.58z" fill="#999"/>
  <path d="M421.33,209.17l-0,-0a1.48,1.48 0,0 1,-1.48 -1.48l-0,-6.39a0,0 0,0 1,-0 -0l3,-0a0,0 0,0 1,-0 -0l-0,6.39A1.48,1.48 0,0 1,421.33 209.17Z" fill="#bc7a93"/>
  <path d="M421.61,204.18l-0.78,-0l-0,-0.75l0.78,-0z" fill="#f8ca00"/>
  <path d="M420.84,209.82h0.23c0,2.26 1.38,4.09 3.07,4.09h11.59v-0.51H424.14c-1.41,0 -2.56,-1.6 -2.56,-3.58h0.21v-0.65h-1Z" fill="#424242"/>
  <path d="M418.06,199.13a3.27,3.27 0,1 0,3.27 -3.27A3.27,3.27 0,0 0,418.06 199.13Z" fill="#d799ae"/>
  <path d="M435.75,200.96l-0.8,0l-13.62,1.45l0,-6.55l13.62,1.44l0.8,0l0,3.66z" fill="#d799ae"/>
  <path d="M421.33,199.13m-2.35,0a2.35,2.35 0,1 1,4.7 0a2.35,2.35 0,1 1,-4.7 0" fill="#4d4d4d"/>
  <path d="M435.75,200.97l-0.79,-0l-0,-3.66l0.79,-0z" fill="#4d4d4d"/>
  <path d="M318.06,118.86h24.67v21.16h-24.67z" fill="#db908a"/>
  <path d="M316.75,112.35h27.3v6.5h-27.3z" fill="#f1a9a0"/>
  <path d="M318.06,140.01l0,-18.94l0,-2.21l24.67,0l-24.67,21.15z" fill="#bc7c79"/>
  <path d="M329.38,112.35h2.03v6.5h-2.03z" fill="#f15723"/>
  <path d="M334.5,105.21a3,3 0,0 1,0 5.93h-2.92v-3a3,3 0,0 1,2.92 -3ZM334.5,104a4.14,4.14 0,0 0,-4.11 4.18v4.17h4.11a4.18,4.18 0,0 0,0 -8.35Z" fill="#f15723"/>
  <path d="M326.29,105.21a3,3 0,0 1,2.92 3v3h-2.92a3,3 0,0 1,0 -5.93ZM326.29,104a4.18,4.18 0,0 0,0 8.35h4.1v-4.17a4.14,4.14 0,0 0,-4.1 -4.18Z" fill="#f15723"/>
  <path d="M329.38,121.08h2.03v18.94h-2.03z" fill="#f15723"/>
  <path d="M331.41,128.56l-2.03,1.75l0,-11.45l2.03,0l0,9.7z" fill="#e2421e"/>
  <path d="M340.56,126.83h15.37v13.18h-15.37z" fill="#34495e"/>
  <path d="M339.74,122.78h17.01v4.05h-17.01z" fill="#3e586d"/>
  <path d="M340.56,140.01l0,-11.8l0,-1.38l15.37,0l-15.37,13.18z" fill="#293a49"/>
  <path d="M346.88,122.78h2.72v4.05h-2.72z" fill="#65dbd0"/>
  <path d="M350.8,118.33a1.85,1.85 0,0 1,0 3.7L349,122.03v-1.85a1.84,1.84 0,0 1,1.82 -1.85ZM350.8,117.58a2.58,2.58 0,0 0,-2.56 2.6v2.6h2.56a2.6,2.6 0,0 0,0 -5.2Z" fill="#4ecdc4"/>
  <path d="M345.68,118.33a1.83,1.83 0,0 1,1.82 1.85L347.5,122h-1.82a1.85,1.85 0,0 1,0 -3.7ZM345.68,117.58a2.6,2.6 0,0 0,0 5.2h2.56v-2.6a2.57,2.57 0,0 0,-2.56 -2.6Z" fill="#4ecdc4"/>
  <path d="M346.88,126.83h2.72v13.18h-2.72z" fill="#4ecdc4"/>
  <path d="M340.55,131.5l0,-2.77l15.39,-0l0,2.77z" fill="#4ecdc4"/>
  <path d="M349.6,132.26l-2.72,2.33l0,-7.76l2.72,0l0,5.43z" fill="#40bcb0"/>
  <path d="M353.71,128.73l-3.23,2.77l-9.92,0l0,-2.77l13.15,0z" fill="#40bcb0"/>
</svg>
