<?xml version="1.0" ?>
<svg height="401.15" viewBox="0 0 469.15 401.15" width="469.15" xmlns="http://www.w3.org/2000/svg">
  <path d="M112.43,78.48s204,-151 323.14,50.32c0,0 89.86,157.91 -24.45,216.67 0,0 -81.55,64 -225.54,40.89 0,0 -172.86,-34.14 -159.87,-178.82C25.71,207.54 26.74,142.17 112.43,78.48Z" fill="#ebe4f1"/>
  <path d="M202.82,5.14S416.47,19.88 424.43,239.23c0,0 3.63,179.8 -110.85,158 0,0 -95.88,2.31 -201.9,-109.78 0,0 -124,-141.71 -38.24,-243.47C73.44,43.93 106.88,-3.06 202.82,5.14Z" fill="#d3b8fe"/>
  <path d="M369.49,4.18m-4.18,0a4.18,4.18 0,1 1,8.36 0a4.18,4.18 0,1 1,-8.36 0" fill="#ebe4f1"/>
  <path d="M455.91,89.45m-6.41,0a6.41,6.41 0,1 1,12.82 0a6.41,6.41 0,1 1,-12.82 0" fill="#f7f3f8"/>
  <path d="M72.87,362.97m-6.41,0a6.41,6.41 0,1 1,12.82 0a6.41,6.41 0,1 1,-12.82 0" fill="#f7f3f8"/>
  <path d="M66.46,16.33m-6.41,0a6.41,6.41 0,1 1,12.82 0a6.41,6.41 0,1 1,-12.82 0" fill="#e6dcec"/>
  <path d="M428.34,382.79v5.8h-5.8a2.15,2.15 0,0 0,-2.21 2.09v0.12a2.18,2.18 0,0 0,0.63 1.6,2.1 2.1,0 0,0 1.58,0.65h5.8v5.8a2.21,2.21 0,0 0,4.41 0.17,0.48 0.48,0 0,0 0,-0.17v-5.8h5.81a2.19,2.19 0,0 0,1.58 -0.65,2.09 2.09,0 0,0 0.67,-1.56 2.16,2.16 0,0 0,-0.67 -1.6,2.23 2.23,0 0,0 -1.58,-0.65h-5.81v-5.8a2.19,2.19 0,0 0,-3.74 -1.56,2.06 2.06,0 0,0 -0.67,1.56Z" fill="#ebe4f1"/>
  <path d="M3.26,88.49l2.89,5 -5,2.9a2.14,2.14 0,0 0,-0.87 2.91l0.06,0.1a2.19,2.19 0,0 0,1.35 1.07,2.09 2.09,0 0,0 1.69,-0.22l5,-2.9 2.9,5a2.2,2.2 0,1 0,3.9 -2.05,1.09 1.09,0 0,0 -0.08,-0.15l-2.9,-5 5,-2.9a2.16,2.16 0,0 0,1.05 -1.35,2.07 2.07,0 0,0 -0.2,-1.68 2.14,2.14 0,0 0,-1.38 -1.06,2.22 2.22,0 0,0 -1.69,0.23l-5,2.9 -2.9,-5a2.18,2.18 0,0 0,-4 0.52,2 2,0 0,0 0.2,1.68Z" fill="#ebe4f1"/>
  <path d="M144.91,140.74H348.36a8.8,8.8 0,0 1,8.78 8.78V283.75a8.8,8.8 0,0 1,-8.78 8.78H144.91a8.8,8.8 0,0 1,-8.77 -8.78V149.52a8.8,8.8 0,0 1,8.77 -8.78" fill="#2774a8"/>
  <path d="M144.92,145.9H348.36a3.63,3.63 0,0 1,3.62 3.62V283.75a3.62,3.62 0,0 1,-3.62 3.61H144.92a3.62,3.62 0,0 1,-3.62 -3.61V149.52a3.63,3.63 0,0 1,3.62 -3.62" fill="#aec9e6"/>
  <path d="M136.14,291.18l221,0l38.25,40.07l-292.64,0l33.39,-40.07z" fill="#fff"/>
  <path d="M141.6,296.03l-15.76,19.43l243.8,0l-18.72,-19.78l-209.32,0.35z" fill="#2774a8"/>
  <path d="M102.75,331.25H395.39v3a3.05,3.05 0,0 1,-3 3H105.78a3,3 0,0 1,-3 -3Z" fill="#2774a8"/>
  <path d="M216.45,319.21l-4.64,5.73l71.86,0l-5.52,-5.84l-61.7,0.11z" fill="#2774a8"/>
  <path d="M206.61,227.67c12.18,10.06 17.41,23.77 23.75,27.88a17,17 0,0 0,4 2,3.06 3.06,0 0,0 3.75,-1.56c1.31,-2.54 3.23,-6.17 4.61,-8.85 1.08,-2.1 -1.15,-3.68 -2.68,-4.78a15.59,15.59 0,0 1,-4.09 -4.51c-3.9,-6.65 -4.28,-8.18 -7.49,-12.36a50.16,50.16 0,0 0,-7.69 -8.28L207.28,226Z" fill="#045287"/>
  <path d="M248,134.38c-1.56,6.56 -13.21,24.92 -22.11,31.58s-21.09,13.64 -27.1,17c-2.22,1.24 -3.58,2 -3.58,2 -8.3,14.32 0.87,36.85 12.62,47.07l35,-9.35c19.92,-5.31 35.4,-1.45 54.6,5.21L289.08,179 261.4,136.11Z" fill="#faa61a"/>
  <path d="M201.23,224.53a42.11,42.11 0,0 0,6.64 7.46l35,-9.35C262,217.55 277,220.89 295.12,227l1.05,-6.86 -1.29,-7.53c-6.79,-2.3 -26.87,-8.5 -39.87,-6.22 -15.83,2.79 -53.74,18.09 -53.78,18.11" fill="#bf760c"/>
  <path d="M264.93,89.21c13.22,-5.17 28,3.32 38.15,12.17 14.77,12.84 26.6,31.42 34.49,49.49 7.36,16.85 12.76,36.58 12.59,55C350,218.64 347,234.15 336,241.34a21.57,21.57 0,0 1,-4 2.09c-13.22,5.17 -28,-3.32 -38.15,-12.17 -14.77,-12.84 -26.6,-31.42 -34.49,-49.49 -7.36,-16.84 -12.76,-36.57 -12.59,-55 0.11,-12.75 3.16,-28.26 14.13,-35.46a21.27,21.27 0,0 1,4.05 -2.09" fill="#ffc48a"/>
  <path d="M267.62,93.23c19.49,-7.66 49.45,18.78 66.92,59s15.84,79.13 -3.65,86.79S281.44,220.29 264,180s-15.84,-79.12 3.65,-86.79" fill="#faa61a"/>
  <path d="M270,99c-10.31,4 -13,17.84 -13.46,27.58 -0.73,17.22 4.45,36.19 11.25,51.86 6.92,16 17.36,32.75 30.5,44.34 7.46,6.58 19.76,14.65 30.16,10.56s13,-17.84 13.46,-27.59c0.73,-17.21 -4.45,-36.18 -11.25,-51.86 -6.92,-16 -17.36,-32.74 -30.5,-44.33C292.73,103 280.43,94.89 270,99" fill="#fff"/>
  <path d="M257.4,142.45a140.68,140.68 0,0 0,10.42 36c6.92,16 17.36,32.75 30.5,44.34 1.52,1.34 3.25,2.75 5.13,4.1a38.4,38.4 0,0 0,1.45 -9.21c0.5,-12 -3.11,-25.26 -7.86,-36.2 -4.83,-11.13 -12.12,-22.85 -21.29,-30.94 -4.57,-4 -11.75,-8.87 -18.35,-8.06" fill="#e5e5e5"/>
  <path d="M191.6,187.74c-6.72,14.47 3.5,37.52 13.34,44.95 -21.56,15.17 -48.66,-26.48 -17.23,-42.8Z" fill="#db9023"/>
  <path d="M213.36,226.17h1.58a3.17,3.17 0,0 1,3.14 3.18l-0.05,7.42 10.4,-6.15a6.83,6.83 0,0 1,9.32 2.4l8.34,14.12a6.82,6.82 0,0 1,-2.39 9.32l-12.41,7.33 -11.38,20c-1,1.68 -1.63,3.72 -3.56,3.51L203.92,286c-1.93,-0.21 -7,-3.49 -6.11,-5.2l14.34,-26.24c1,-1.77 -0.07,-4.05 -1.07,-5.74a6.78,6.78 0,0 1,-0.79 -4.89,3.4 3.4,0 0,1 -0.19,-1.11l0.08,-13.48a3.17,3.17 0,0 1,3.18 -3.14" fill="#f7aaac"/>
  <path d="M213.36,226.17h1.58a3.17,3.17 0,0 1,3.14 3.18l-0.05,7.42 -2.41,1.61s-0.16,-7.74 -0.16,-9.85a2.39,2.39 0,0 0,-2.1 -2.37" fill="#f49195"/>
  <path d="M231.38,229.71a6.82,6.82 0,0 1,6.37 3.32l8.34,14.12a6.81,6.81 0,0 1,-2.39 9.31l-12.41,7.34 -4.13,7.25 -2.7,-2.47a16.75,16.75 0,0 1,3.68 -6.13c3,-3.49 8.69,-5.5 12,-7.5s3.57,-3 2.9,-5 -11.66,-20.27 -11.67,-20.28" fill="#f49195"/>
  <path d="M207.99,258.22l22.48,12.35l-5.46,9.92l-22.68,-12.09l5.66,-10.18z" fill="#fff"/>
  <path d="M201.86,262.25l28.23,14.9l-5.25,10.49l-41.75,0l18.77,-25.39z" fill="#00a5d3"/>
  <path d="M215.98,269.7l-11.79,17.94l20.65,0l5.25,-10.49l-14.11,-7.45z" fill="#007c9e"/>
  <path d="M277,196.79a153,153 0,0 1,-7.29 -13.66l19,-8 3.82,1 2.81,6.65Z" fill="#007c9e"/>
  <path d="M269.73,183.13q-1.08,-2.28 -2.1,-4.63c-1.65,-3.78 -3.11,-7.55 -4.39,-11.28l24.22,-2.61 3.16,5.79 -1.91,4.77Z" fill="#00a5d3"/>
  <path d="M287,175.42a17,17 0,0 0,4.08 5.93c1.51,1.32 3,1.9 4.25,1.43 2.43,-1 2.63,-5.8 0.46,-10.81a21.13,21.13 0,0 0,-1.1 -2.18c-0.15,-0.26 -0.31,-0.51 -0.47,-0.76 -2.13,-3.29 -4.86,-5.17 -6.77,-4.42 -1.32,0.52 -2,2.19 -2,4.42 0,0.25 0,0.5 0,0.76h0a17.73,17.73 0,0 0,1.48 5.62" fill="#f9bdd9"/>
  <path d="M338.26,129.76l22.51,-22.95l-6.39,-5.87l-19,25.79l2.88,3.03z" fill="#faa61a"/>
  <path d="M347.3,146.14l42.85,-19.54l4.98,11.37l-45.38,13.62l-2.45,-5.45z" fill="#faa61a"/>
  <path d="M355.24,168.36l31.96,5.43l-1.9,8.33l-31.21,-9.79l1.15,-3.97z" fill="#faa61a"/>
  <path d="M201.88,186.88c18.3,-9.92 30.7,-14.95 42.89,-32.27 -4.47,13.24 -24.43,26.95 -42.89,32.27" fill="#ffc064"/>
  <path d="M37.43,281.95L86.97,281.95A2.61,2.61 0,0 1,89.58 284.56L89.58,316.59A2.61,2.61 0,0 1,86.97 319.2L37.43,319.2A2.61,2.61 0,0 1,34.82 316.59L34.82,284.56A2.61,2.61 0,0 1,37.43 281.95z" fill="#f1f2f2"/>
  <path d="M87.27,283.44a0.82,0.82 0,0 1,0.82 0.82v32.63a0.82,0.82 0,0 1,-0.82 0.81H37.13a0.82,0.82 0,0 1,-0.82 -0.81V284.26a0.82,0.82 0,0 1,0.82 -0.82H87.27m0,-1.49H37.13a2.3,2.3 0,0 0,-2.31 2.31v32.63a2.3,2.3 0,0 0,2.31 2.3H87.27a2.31,2.31 0,0 0,2.31 -2.3V284.26A2.31,2.31 0,0 0,87.27 282Z" fill="#fff"/>
  <path d="M91.44,286.23H89.58v30.66a2.31,2.31 0,0 1,-2.31 2.3H39v2a2.31,2.31 0,0 0,2.31 2.31H91.44a2.31,2.31 0,0 0,2.31 -2.31V288.54A2.32,2.32 0,0 0,91.44 286.23Z" fill="#007caa"/>
  <path d="M34.82,285.61l29.27,17.42l25.49,-17.41l-54.76,-0.01z" fill="#d1d3d4"/>
  <path d="M87.27,282H37.13a2.3,2.3 0,0 0,-2.31 2.31v1.35l29.34,15 25.42,-14.95v-1.36A2.31,2.31 0,0 0,87.27 282Z" fill="#fff"/>
  <path d="M26.6,284.73a10,10 0,1 0,10 -10A10,10 0,0 0,26.6 284.73Z" fill="#f48473"/>
  <path d="M44.77,283.75a0.56,0.56 0,0 1,-0.55 -0.46A7.77,7.77 0,0 0,36.58 277a0.56,0.56 0,0 1,0 -1.12,8.89 8.89,0 0,1 8.74,7.24 0.57,0.57 0,0 1,-0.45 0.65Z" fill="#fff"/>
  <path d="M31.96,282.73h2.01v5.44h-2.01z" fill="#fff"/>
  <path d="M36.6,281.2c0.08,-0.17 0.15,-0.66 0.23,-0.94a0.62,0.62 0,0 1,0.59 -0.44,1.14 1.14,0 0,1 1.13,1.26c0,0.13 0,0.24 0,0.31 0,0.29 -0.23,0.95 -0.34,1.34h2.26a0.78,0.78 0,0 1,0.78 0.78v1l-0.24,0.14v2.74a0.78,0.78 0,0 1,-0.78 0.78H34.54v-5.44H35.6A17.08,17.08 0,0 0,36.6 281.2Z" fill="#fff"/>
  <path d="M200,82.84h11.81V75.29A4.26,4.26 0,0 0,207.51 71H177.36a4.26,4.26 0,0 0,-4.27 4.26V91a4.27,4.27 0,0 0,4.27 4.26h0.33v7.8l7.81,-7.8h9.32V88A5.15,5.15 0,0 1,200 82.84Z" fill="#00a5d3"/>
  <path d="M231.41,84.75H201.25A4.27,4.27 0,0 0,197 89v15.73a4.27,4.27 0,0 0,4.26 4.27h22l7.8,7.8V109h0.34a4.27,4.27 0,0 0,4.26 -4.27V89A4.27,4.27 0,0 0,231.41 84.75Z" fill="#e9fdff"/>
  <path d="M64.09,174.66m-15.66,0a15.66,15.66 0,1 1,31.32 0a15.66,15.66 0,1 1,-31.32 0" fill="#ffc333"/>
  <path d="M68.18,171.52h3.16v8.52h-3.16z" fill="#fff"/>
  <path d="M64.06,169.12c-0.12,-0.27 -0.24,-1 -0.36,-1.47a1,1 0,0 0,-0.92 -0.7,1.78 1.78,0 0,0 -1.77,2c0,0.2 0,0.37 0.06,0.49 0.08,0.44 0.36,1.49 0.53,2.1H58.05a1.21,1.21 0,0 0,-1.21 1.21v1.58l0.37,0.21v4.3A1.21,1.21 0,0 0,58.43 180h8.86v-8.52H65.63A28.42,28.42 0,0 1,64.06 169.12Z" fill="#fff"/>
  <path d="M415.961,320.76m-13.653,5.686a14.79,14.79 112.39,1 1,27.307 -11.372a14.79,14.79 112.39,1 1,-27.307 11.372" fill="#f48473"/>
  <path d="M421.91,316.36a1.62,1.62 0,0 0,-0.1 -0.18,3.12 3.12,0 0,0 -5.06,-0.27l-0.79,1 -0.8,-1a3.11,3.11 0,0 0,-5 0.22l-0.1,0.16h0a3.21,3.21 0,0 0,0.3 3.56l5.62,7 5.56,-6.92A3.26,3.26 0,0 0,421.91 316.36Z" fill="#fff"/>
  <path d="M118.84,126.44h2.67v-4.2h-4a5.42,5.42 0,0 0,-4.13 2s-1.09,1 -1.11,4.06h0v3.16h-4v4.46h4v11.55h4.57V135.94h3.94l0.54,-4.46h-4.48v-3.16h0A1.84,1.84 0,0 1,118.84 126.44Z" fill="#5766ce"/>
  <path d="M98.85,225H87.72a8.93,8.93 0,0 0,-8.93 8.93v11.12A8.93,8.93 0,0 0,87.72 254H98.85a8.93,8.93 0,0 0,8.93 -8.93V233.93A8.93,8.93 0,0 0,98.85 225ZM105,244a7.21,7.21 0,0 1,-7.21 7.22h-9A7.22,7.22 0,0 1,81.57 244v-9a7.22,7.22 0,0 1,7.22 -7.22h9A7.21,7.21 0,0 1,105 235Z" fill="#55aeff"/>
  <path d="M93.67,231.91a7.63,7.63 0,1 0,7.64 7.63A7.63,7.63 0,0 0,93.67 231.91ZM93.67,244.13a4.59,4.59 0,1 1,4.6 -4.59A4.58,4.58 0,0 1,93.67 244.13Z" fill="#55aeff"/>
  <path d="M102.72,231.79a1.94,1.94 0,1 1,-1.94 -1.94A1.94,1.94 0,0 1,102.72 231.79Z" fill="#55aeff"/>
  <path d="M393.49,275a23.75,23.75 0,1 1,23.76 -23.75A23.78,23.78 0,0 1,393.49 275ZM393.49,231.06a20.19,20.19 0,1 0,20.19 20.19A20.21,20.21 0,0 0,393.49 231.06Z" fill="#f44336"/>
  <path d="M393.49,266.69a15.44,15.44 0,1 1,15.44 -15.44A15.45,15.45 0,0 1,393.49 266.69ZM393.49,239.37a11.88,11.88 0,1 0,11.88 11.88A11.89,11.89 0,0 0,393.49 239.37Z" fill="#f44336"/>
  <path d="M393.49,258.37a7.13,7.13 0,1 1,7.13 -7.12A7.13,7.13 0,0 1,393.49 258.37ZM393.49,247.69a3.56,3.56 0,1 0,3.57 3.56A3.57,3.57 0,0 0,393.49 247.69Z" fill="#f44336"/>
  <path d="M393.49,253a1.74,1.74 0,0 1,-1.25 -0.52,1.77 1.77,0 0,1 0,-2.52l17.81,-17.81a1.77,1.77 0,0 1,2.52 0,1.79 1.79,0 0,1 0,2.52l-17.81,17.81a1.79,1.79 0,0 1,-1.27 0.52Z" fill="#607d8b"/>
  <path d="M417.84,234.62H411.9a1.78,1.78 0,0 1,-1.78 -1.78v-5.93a1.78,1.78 0,0 1,0.52 -1.26l7.13,-7.13a1.78,1.78 0,0 1,3 1.26v4.16H425a1.78,1.78 0,0 1,1.26 3l-7.12,7.12a1.75,1.75 0,0 1,-1.26 0.52Z" fill="#2196f3"/>
  <path d="M436.45,174c0,3.87 -1.32,7 -5.19,7H411.35c-3.87,0 -5.6,-3.14 -5.6,-7v-7.41c0,-3.87 1.57,-7 5.44,-7h20.23c3.87,0 5,3.14 5,7Z" fill="#ec827d"/>
  <path d="M418.02,166.13l8.37,4.37l-8.37,4.36l0,-8.73z" fill="#fff"/>
</svg>
